<?xml version="1.0" encoding="UTF-8" standalone="no"?>
<svg
   width="541.86664mm"
   height="541.86664mm"
   version="1.1"
   viewBox="0 0 2047.9999 2047.9999"
   id="svg6"
   sodipodi:docname="2643-32.svg"
   inkscape:version="1.1.2 (b8e25be833, 2022-02-05)"
   xmlns:inkscape="http://www.inkscape.org/namespaces/inkscape"
   xmlns:sodipodi="http://sodipodi.sourceforge.net/DTD/sodipodi-0.dtd"
   xmlns="http://www.w3.org/2000/svg"
   xmlns:svg="http://www.w3.org/2000/svg"
   xmlns:rdf="http://www.w3.org/1999/02/22-rdf-syntax-ns#"
   xmlns:cc="http://creativecommons.org/ns#"
   xmlns:dc="http://purl.org/dc/elements/1.1/">
  <metadata
     id="metadata12">
    <rdf:RDF>
      <cc:Work
         rdf:about="">
        <dc:format>image/svg+xml</dc:format>
        <dc:type
           rdf:resource="http://purl.org/dc/dcmitype/StillImage" />
      </cc:Work>
    </rdf:RDF>
  </metadata>
  <defs
     id="defs10" />
  <sodipodi:namedview
     pagecolor="#ffffff"
     bordercolor="#666666"
     borderopacity="1"
     objecttolerance="10"
     gridtolerance="10"
     guidetolerance="10"
     inkscape:pageopacity="0"
     inkscape:pageshadow="2"
     inkscape:window-width="640"
     inkscape:window-height="480"
     id="namedview8"
     showgrid="false"
     inkscape:zoom="0.30592447"
     inkscape:cx="1248.6742"
     inkscape:cy="308.89977"
     inkscape:current-layer="svg6"
     inkscape:pagecheckerboard="0"
     inkscape:document-units="px"
     units="px"
     scale-x="1"
     showguides="false" />
  <path
     d="m 1745.6659,240.25301 v 39.97402 h -49.9675 q -69.9546,0 -109.9286,54.96429 -39.974,54.96428 -39.974,104.93181 v 999.35057 q 0,49.9676 39.974,104.9319 39.974,54.9642 109.9286,54.9642 h 49.9675 v 39.9741 h -599.6103 v -39.9741 h 49.9675 q 69.9545,0 109.9285,-54.9642 39.9741,-54.9643 39.9741,-104.9319 V 440.12313 q 0,-49.96753 -39.9741,-104.93181 -39.974,-54.96429 -109.9285,-54.96429 h -49.9675 v -39.97402 z"
     id="path6711"
     style="font-size:2046.67px;line-height:1;font-family:Quivira;-inkscape-font-specification:Quivira;letter-spacing:0px;word-spacing:0px" />
  <rect
     style="fill:#ff0000;stroke-width:99.9996;stroke-linecap:square;stroke-miterlimit:10;paint-order:stroke fill markers"
     id="rect3360"
     width="1053.2521"
     height="75"
     x="692.41376"
     y="1084.6555" />
  <path
     d="m 699.07617,1084.7043 c 46.63636,0 96.96319,25.8433 136.27099,10.5199 21.15138,6.9344 40.67213,9.0031 50.6226,27.8097 -69.95454,35.3103 -114.27411,36.6216 -186.89359,36.6216 -71.95324,0 -138.2435,-10.6597 -198.87077,-31.9792 -59.96103,-21.3195 -107.92986,-51.9662 -143.90649,-91.9402 -35.97662,-40.64028 -53.96493,-85.94418 -53.96493,-135.91169 0,-43.30519 17.98831,-85.27792 53.96493,-125.91818 26.64935,-29.98051 62.29286,-54.63116 106.93052,-73.95194 -44.63766,-19.32078 -80.28117,-44.30455 -106.93052,-74.9513 -35.97662,-39.97402 -53.96493,-81.61363 -53.96493,-124.91882 0,-49.96753 17.98831,-94.93831 53.96493,-134.91234 35.97663,-40.64025 83.94546,-71.62012 143.90649,-92.9396 60.62727,-21.31948 126.91753,-31.97922 198.87077,-31.97922 72.61948,0 143.90649,17.65519 213.86103,52.96558 70.62078,35.31039 120.5883,88.9422 149.9026,160.89545 3.3312,11.99221 4.9968,23.31818 4.9968,33.97792 0,37.30909 -19.9871,58.96168 -59.9611,64.95779 -9.32726,1.9987 -17.65519,2.99805 -24.98376,2.99805 -26.64935,0 -44.63766,-8.66104 -53.96493,-25.98311 -9.32727,-15.98961 -13.99091,-32.31234 -13.99091,-48.96818 0,-5.32987 0.66623,-10.99286 1.9987,-16.98896 0.66623,-5.32987 0.99935,-10.99286 0.99935,-16.98897 0,-16.65584 -3.9974,-33.6448 -11.9922,-50.96688 -11.99221,-23.31818 -37.97532,-42.63896 -77.94935,-57.96233 -39.30779,-15.32338 -82.27987,-22.98507 -128.91623,-22.98507 -45.97013,0 -87.27662,7.66169 -123.91947,22.98507 -35.97663,14.65714 -65.62403,35.97662 -88.94221,63.95844 -22.65195,27.98181 -33.97792,60.62727 -33.97792,97.93636 0,29.98051 11.32597,59.2948 33.97792,87.94285 23.31818,27.98182 56.62987,49.3013 99.93506,63.95844 6.66234,2.66493 13.32468,4.99675 19.98702,6.99545 36.64285,-5.9961 74.28506,-8.99415 112.92661,-8.99415 38.64156,0 67.28961,8.32792 85.94416,24.98376 9.32727,7.99481 13.9909,16.32273 13.9909,24.98377 0,7.99481 -4.66363,16.32273 -13.9909,24.98376 -18.65455,16.65585 -47.3026,24.98377 -85.94416,24.98377 -38.64155,0 -76.28376,-2.99805 -112.92661,-8.99416 -6.66234,1.99871 -13.32468,3.99741 -19.98702,5.99611 -43.30519,15.32337 -76.61688,36.97597 -99.93506,64.95779 -22.65195,27.98181 -33.97792,57.2961 -33.97792,87.94285 0,36.64291 11.32597,69.28831 33.97792,97.93631 23.31818,27.98188 52.96558,49.63448 88.94221,64.95778 36.64285,14.6572 77.94934,21.9858 123.91947,21.9858 z"
     id="path3119"
     sodipodi:nodetypes="sccsccscccsccsccscscscsccsccscccscscscccsccs"
     style="font-size:2046.67px;line-height:1;font-family:Quivira;-inkscape-font-specification:Quivira;letter-spacing:0px;word-spacing:0px" />
</svg>
