<?xml version="1.0" encoding="UTF-8" standalone="no"?>
<svg
   width="541.86664mm"
   height="541.86664mm"
   version="1.1"
   viewBox="0 0 2047.9999 2047.9999"
   id="svg6"
   sodipodi:docname="2643-34.svg"
   inkscape:version="1.1.2 (b8e25be833, 2022-02-05)"
   xmlns:inkscape="http://www.inkscape.org/namespaces/inkscape"
   xmlns:sodipodi="http://sodipodi.sourceforge.net/DTD/sodipodi-0.dtd"
   xmlns="http://www.w3.org/2000/svg"
   xmlns:svg="http://www.w3.org/2000/svg"
   xmlns:rdf="http://www.w3.org/1999/02/22-rdf-syntax-ns#"
   xmlns:cc="http://creativecommons.org/ns#"
   xmlns:dc="http://purl.org/dc/elements/1.1/">
  <metadata
     id="metadata12">
    <rdf:RDF>
      <cc:Work
         rdf:about="">
        <dc:format>image/svg+xml</dc:format>
        <dc:type
           rdf:resource="http://purl.org/dc/dcmitype/StillImage" />
      </cc:Work>
    </rdf:RDF>
  </metadata>
  <defs
     id="defs10" />
  <sodipodi:namedview
     pagecolor="#ffffff"
     bordercolor="#666666"
     borderopacity="1"
     objecttolerance="10"
     gridtolerance="10"
     guidetolerance="10"
     inkscape:pageopacity="0"
     inkscape:pageshadow="2"
     inkscape:window-width="640"
     inkscape:window-height="480"
     id="namedview8"
     showgrid="false"
     inkscape:zoom="0.076481119"
     inkscape:cx="-2680.4001"
     inkscape:cy="-385.71612"
     inkscape:current-layer="svg6"
     inkscape:pagecheckerboard="0"
     inkscape:document-units="px"
     units="px"
     scale-x="1"
     showguides="false" />
  <g
     aria-label="♃"
     id="text10614"
     style="font-size:2046.67px;line-height:1;font-family:Quivira;-inkscape-font-specification:Quivira;letter-spacing:0px;word-spacing:0px;fill:#cd853f"
     transform="translate(1706.9192,1336.5534)">
    <path
       d="m 157.82396,-271.83622 q 204.86687,-104.93182 260.83051,-208.86428 55.96363,-104.93182 55.96363,-195.87272 0,-100.93441 -17.98831,-169.8896 -17.98831,-69.95455 -55.96364,-114.92532 -36.97597,-44.97076 -93.93895,-44.97076 -64.95779,0 -122.92013,49.96751 -56.96298,49.96753 -110.927915,134.91233 -52.965582,84.9448 -52.965582,164.89285 H -17.0624 V -1106.294 h 36.975973 q 0,24.9838 22.985064,51.9662 23.984414,25.9832 53.964932,25.9832 29.980521,0 84.944801,-38.9747 54.96428,-38.9747 124.91883,-38.9747 108.92921,0 193.87401,57.9624 85.94416,57.96229 129.91558,141.90774 43.97143,82.9461 43.97143,209.86363 0,116.92402 -50.96688,220.85648 -30.97987,62.95909 -73.95195,103.93246 h 442.71232 v -524.65906 q 0,-49.96753 -39.97402,-104.93185 -39.97402,-54.9643 -109.92857,-54.9643 h -49.96753 v -39.974 H 1392.022 v 39.974 h -49.9676 q -69.9545,0 -109.9285,54.9643 -39.9741,54.96432 -39.9741,104.93185 v 999.3506 q 0,49.96753 39.9741,104.93182 39.974,54.96428 109.9285,54.96428 h 49.9676 v 39.97402 H 792.41159 v -39.97402 h 49.96753 q 69.95455,0 109.92857,-54.96428 39.97402,-54.96429 39.97402,-104.93182 v -374.75647 z"
       id="path11524"
       style="fill:#cd853f" />
  </g>
  <path
     d="m 1752.2035,240.25301 v 39.97402 h -49.9675 q -69.9546,0 -109.9286,54.96429 -39.974,54.96428 -39.974,104.93181 v 999.35057 q 0,49.9676 39.974,104.9319 39.974,54.9642 109.9286,54.9642 h 49.9675 v 39.9741 h -599.6103 v -39.9741 h 49.9675 q 69.9545,0 109.9285,-54.9642 39.9741,-54.9643 39.9741,-104.9319 V 440.12313 q 0,-49.96753 -39.9741,-104.93181 -39.974,-54.96429 -109.9285,-54.96429 h -49.9675 v -39.97402 z"
     id="path6711"
     style="font-size:2046.67px;line-height:1;font-family:Quivira;-inkscape-font-specification:Quivira;letter-spacing:0px;word-spacing:0px" />
  <path
     id="rect3360"
     style="fill:#ff0000;stroke-width:99.9992;stroke-linecap:square;stroke-miterlimit:10;paint-order:stroke fill markers"
     d="m 1027.4319,1244.6556 h 746.4539 v 75 h -746.4539 z" />
  <path
     id="rect5638"
     style="fill:#696969;stroke-width:100;stroke-linecap:square;stroke-miterlimit:10;paint-order:stroke fill markers"
     d="m 1495.8607,604.3439 v 1035 h -100 v -1035 z" />
  <g
     aria-label="ϰ"
     id="text6102"
     style="font-size:2046.67px;line-height:1;font-family:Quivira;-inkscape-font-specification:Quivira;letter-spacing:0px;word-spacing:0px"
     transform="translate(149.8563,133.17122)">
    <path
       d="m 1096.4285,366.0175 c 0,115.92467 -54.9643,205.53311 -164.89284,268.82532 l -79.94805,296.80713 c -6.66233,24.65065 -9.9935,45.63701 -9.9935,62.95908 0,19.32077 3.9974,34.64417 11.9922,45.97017 14.65715,21.9857 57.53415,42.3867 65.95714,44.9707 18.24896,4.8898 79.95023,26.4008 89.94375,26.4008 13.3247,0 6.6861,14.5986 22.0095,10.6012 26.6493,-6.6623 79.0161,32.42 97.0044,9.7681 l 37.9753,9.9935 c -39.3078,57.2961 -152.3278,2.8643 -198.96412,24.1838 -30.64675,13.3247 -60.62727,19.9871 -89.94155,19.9871 -15.32338,0 -30.64676,-1.6656 -45.97013,-4.9968 -29.31429,-7.9948 -52.96558,-22.9851 -70.95389,-44.9708 -17.32208,-21.9857 -26.98247,-49.9675 -28.98117,-83.9454 v -9.9935 c 0,-33.3117 7.66169,-78.2825 22.98506,-134.91237 L 808.61554,705.79671 380.89348,952.63631 C 338.92075,1108.535 284.6227,1186.4844 217.99933,1186.4844 c -47.3026,0 -70.9539,-45.3039 -70.9539,-135.9117 0,-90.60781 55.2974,-167.89093 165.8922,-231.84937 l 78.9487,-295.80778 c 6.66234,-24.65065 9.99351,-45.63701 9.99351,-62.95909 0,-19.32078 -3.66429,-34.64416 -10.99286,-45.97013 -15.32337,-21.98571 -37.6422,-36.97597 -66.95649,-44.97078 -9.32727,-1.9987 -18.98766,-2.99805 -28.98117,-2.99805 -13.32467,0 -27.6487,1.66559 -42.97207,4.99676 -26.64935,7.32857 -48.96818,22.31882 -66.95649,44.97077 l -37.97533,-9.9935 c 39.30779,-57.29611 82.27987,-96.93702 128.91623,-118.92273 29.98052,-13.32467 59.29481,-19.98701 87.94286,-19.98701 15.98961,0 31.97922,1.9987 47.96883,5.99611 29.31428,7.9948 52.63246,22.98506 69.95454,44.97077 17.98831,21.98571 27.98181,49.63441 29.98052,82.9461 v 10.99286 c 0,33.31169 -7.66169,78.28246 -22.98507,134.91233 l -53.96493,200.86947 428.72141,-246.8396 c 41.30649,-155.89869 95.27142,-233.84804 161.89478,-233.84804 47.3026,0 70.9539,32.97857 70.9539,98.93571 z"
       id="path7612"
       sodipodi:nodetypes="sccsccsccccscccscccssccsccsccccscccscccss" />
  </g>
</svg>
