<?xml version="1.0" encoding="UTF-8" standalone="no"?>
<svg
   width="2047.9999"
   height="2047.9999"
   version="1.1"
   viewBox="0 0 2047.9999 2047.9999"
   id="svg6"
   sodipodi:docname="2644-32.svg"
   inkscape:version="1.1.2 (b8e25be833, 2022-02-05)"
   xmlns:inkscape="http://www.inkscape.org/namespaces/inkscape"
   xmlns:sodipodi="http://sodipodi.sourceforge.net/DTD/sodipodi-0.dtd"
   xmlns="http://www.w3.org/2000/svg"
   xmlns:svg="http://www.w3.org/2000/svg"
   xmlns:rdf="http://www.w3.org/1999/02/22-rdf-syntax-ns#"
   xmlns:cc="http://creativecommons.org/ns#"
   xmlns:dc="http://purl.org/dc/elements/1.1/">
  <metadata
     id="metadata12">
    <rdf:RDF>
      <cc:Work
         rdf:about="">
        <dc:format>image/svg+xml</dc:format>
        <dc:type
           rdf:resource="http://purl.org/dc/dcmitype/StillImage" />
      </cc:Work>
    </rdf:RDF>
  </metadata>
  <defs
     id="defs10" />
  <sodipodi:namedview
     pagecolor="#ffffff"
     bordercolor="#666666"
     borderopacity="1"
     objecttolerance="10"
     gridtolerance="10"
     guidetolerance="10"
     inkscape:pageopacity="0"
     inkscape:pageshadow="2"
     inkscape:window-width="640"
     inkscape:window-height="480"
     id="namedview8"
     showgrid="false"
     inkscape:zoom="0.08"
     inkscape:cx="5925"
     inkscape:cy="1656.25"
     inkscape:current-layer="svg6"
     inkscape:pagecheckerboard="0"
     inkscape:document-units="px"
     units="px"
     scale-x="1"
     showguides="false" />
  <g
     aria-label="♄"
     id="text3786-2"
     style="font-size:541.514px;line-height:1;font-family:'CMU Sans Serif';-inkscape-font-specification:'CMU Sans Serif';letter-spacing:0px;word-spacing:0px;stroke-width:0.264583"
     transform="matrix(3.7795276,0,0,3.7795276,-351.60459,-1.0700696)" />
  <g
     id="g16868"
     transform="translate(-133.74391)">
    <g
       aria-label="E "
       id="text2062-7"
       style="font-size:2046.67px;line-height:1;font-family:Quivira;-inkscape-font-specification:Quivira;letter-spacing:0px;word-spacing:0px"
       transform="translate(-3483.2142,-693.00382)">
      <path
         d="m 3946.1846,1131.7829 c 0,-33.3117 -13.3247,-68.2889 -39.974,-104.9318 -26.6494,-36.64284 -63.2923,-54.96426 -109.9286,-54.96426 h -49.9675 v -39.97403 h 949.2532 l 59.935,269.77269 h -39.974 c -73.2857,-166.5584 -103.2403,-169.8376 -169.8636,-169.8376 h -419.6104 v 349.6428 h 139.7402 c 33.3117,0 68.289,-3.3247 104.9319,-29.974 36.6428,-26.6493 37.6342,-56.6317 54.9642,-99.9286 v -49.9675 h 39.9741 v 459.6753 h -39.9741 v -49.9675 c 0,-46.6364 -18.3214,-73.2793 -54.9642,-99.9286 -36.6429,-26.6493 -71.6202,-29.974 -104.9319,-29.974 h -139.7402 v 369.6428 h 419.6104 c 66.6233,0 96.5779,-3.2792 169.8636,-169.8377 h 39.974 l -59.935,269.7728 h -949.2532 v -39.9741 h 49.9675 c 46.6363,0 83.2792,-18.3214 109.9286,-54.9642 26.6493,-36.6429 39.974,-71.6202 39.974,-104.9319 z"
         id="path10835"
         sodipodi:nodetypes="ssscccccsccsssccccsssccscccccssss" />
    </g>
    <path
       d="m 1238.5105,962.58722 c 41.841,-98.52086 183.6207,-222.57591 304.2088,-222.57591 122.5868,0 219.8568,47.63566 291.81,142.90693 71.9531,95.27127 107.9297,204.53346 107.9297,327.78656 0,92.6063 -33.3117,192.2081 -99.9349,298.8053 -66.6233,105.931 -99.935,199.2036 -99.935,279.8178 0,179.8828 60.6272,279.8178 181.8816,299.8048 31.3129,0 67.2895,-9.9935 107.9297,-29.9805 l 19.987,29.9805 c -51.2999,33.3116 -103.9323,49.9674 -157.8972,49.9674 -98.6024,0 -181.8815,-36.3097 -249.8373,-108.9291 -67.9557,-72.6193 -101.9336,-152.9004 -101.9336,-240.8431 0,-70.6207 33.3116,-163.5601 99.9349,-278.8184 66.6233,-115.9245 99.9349,-215.8594 99.9349,-299.8047 0,-95.9376 -20.9863,-181.5485 -62.959,-256.83277 -41.3064,-75.95056 -101.6005,-113.92581 -180.8822,-113.92581 -103.266,0 -188.5438,74.61808 -255.8334,223.85418 -12.1148,30.287 -46.914,10.5036 -30.6562,-33.7209 23.7616,-49.46991 15.4651,-35.16909 26.2522,-67.49228 z"
       style="font-size:541.514px;line-height:1;font-family:Quivira;-inkscape-font-specification:Quivira;letter-spacing:0px;word-spacing:0px;stroke-width:0.999999"
       id="path4633"
       sodipodi:nodetypes="cssscscccssscscsccc" />
  </g>
</svg>
