<?xml version="1.0" encoding="UTF-8" standalone="no"?>
<svg
   width="2047.9999"
   height="2047.9999"
   version="1.1"
   viewBox="0 0 2047.9999 2047.9999"
   id="svg6"
   sodipodi:docname="2644-36.svg"
   inkscape:version="1.1.2 (b8e25be833, 2022-02-05)"
   xmlns:inkscape="http://www.inkscape.org/namespaces/inkscape"
   xmlns:sodipodi="http://sodipodi.sourceforge.net/DTD/sodipodi-0.dtd"
   xmlns="http://www.w3.org/2000/svg"
   xmlns:svg="http://www.w3.org/2000/svg"
   xmlns:rdf="http://www.w3.org/1999/02/22-rdf-syntax-ns#"
   xmlns:cc="http://creativecommons.org/ns#"
   xmlns:dc="http://purl.org/dc/elements/1.1/">
  <metadata
     id="metadata12">
    <rdf:RDF>
      <cc:Work
         rdf:about="">
        <dc:format>image/svg+xml</dc:format>
        <dc:type
           rdf:resource="http://purl.org/dc/dcmitype/StillImage" />
      </cc:Work>
    </rdf:RDF>
  </metadata>
  <defs
     id="defs10" />
  <sodipodi:namedview
     pagecolor="#ffffff"
     bordercolor="#666666"
     borderopacity="1"
     objecttolerance="10"
     gridtolerance="10"
     guidetolerance="10"
     inkscape:pageopacity="0"
     inkscape:pageshadow="2"
     inkscape:window-width="640"
     inkscape:window-height="480"
     id="namedview8"
     showgrid="false"
     inkscape:zoom="0.054080319"
     inkscape:cx="-1359.0896"
     inkscape:cy="4243.688"
     inkscape:current-layer="svg6"
     inkscape:pagecheckerboard="0"
     inkscape:document-units="px"
     units="px"
     scale-x="1" />
  <g
     aria-label="♄"
     id="text3786-2-8"
     style="font-size:541.514px;line-height:1;font-family:'CMU Sans Serif';-inkscape-font-specification:'CMU Sans Serif';letter-spacing:0px;word-spacing:0px;stroke-width:0.264583"
     transform="matrix(3.7795276,0,0,3.7795276,174.88604,-1.0700696)">
    <path
       id="path4633-0"
       style="font-family:Quivira;-inkscape-font-specification:Quivira;stroke-width:0.999999"
       d="M 1024 116.61133 C 880.17656 116.61133 759.29978 219.00968 730.53125 354.54297 L 533.57031 354.54297 C 500.25863 354.54297 465.28153 346.26815 428.63867 329.7168 C 391.99582 313.16545 373.67383 290.40823 373.67383 261.44336 L 373.67383 230.4082 L 333.69922 230.4082 L 333.69922 602.81445 L 373.67383 602.81445 L 373.67383 571.7793 C 373.67383 542.81443 391.99582 520.05721 428.63867 503.50586 C 465.28153 486.95451 500.25863 478.67969 533.57031 478.67969 L 730.53125 478.67969 C 756.53011 601.16461 857.84145 696.30859 983.24609 713.54688 L 983.24609 972.15625 C 959.17797 1021.9646 940.74443 1061.3317 920.05469 1104.4062 C 903.7969 1148.6308 981.90475 1094.0878 994.01953 1063.8008 C 1061.3091 914.56466 1146.5874 839.94531 1249.8535 839.94531 C 1329.1352 839.94531 1389.428 877.92054 1430.7344 953.87109 C 1472.707 1029.1554 1493.6934 1114.7676 1493.6934 1210.7051 C 1493.6934 1294.6504 1460.383 1394.5853 1393.7598 1510.5098 C 1327.1365 1625.768 1293.8242 1718.7075 1293.8242 1789.3281 C 1293.8242 1877.2709 1327.8021 1957.5525 1395.7578 2030.1719 C 1463.7136 2102.7912 1546.9932 2139.0996 1645.5957 2139.0996 C 1699.5606 2139.0996 1752.1923 2122.4444 1803.4922 2089.1328 L 1783.5059 2059.1523 C 1742.8657 2079.1394 1706.8891 2089.1328 1675.5762 2089.1328 C 1554.3218 2069.1458 1493.6934 1969.211 1493.6934 1789.3281 C 1493.6934 1708.7139 1527.0056 1615.4408 1593.6289 1509.5098 C 1660.2522 1402.9125 1693.5645 1303.3114 1693.5645 1210.7051 C 1693.5645 1087.452 1657.5879 978.18924 1585.6348 882.91797 C 1513.6816 787.6467 1416.411 740.01172 1293.8242 740.01172 C 1214.7506 740.01172 1144.5585 770.09512 1083.2461 830.25391 L 1083.2461 710.48242 C 1200.0289 686.84554 1292.7597 595.08737 1317.4688 478.67969 L 1532.9199 478.67969 C 1566.2317 478.67969 1601.2106 486.95451 1637.8535 503.50586 C 1674.4963 520.05721 1692.8164 542.81443 1692.8164 571.7793 L 1692.8164 602.81445 L 1732.791 602.81445 L 1732.791 230.4082 L 1692.8164 230.4082 L 1692.8164 261.44336 C 1692.8164 290.40823 1674.4963 313.16545 1637.8535 329.7168 C 1601.2106 346.26815 1566.2317 354.54297 1532.9199 354.54297 L 1317.4688 354.54297 C 1288.7 219.00968 1167.8234 116.61133 1024 116.61133 z M 1024 196.61133 C 1114.0407 196.61133 1176.3841 268.24672 1196.7578 354.54297 L 851.24219 354.54297 C 871.61595 268.24672 933.95933 196.61133 1024 196.61133 z M 851.24219 478.67969 L 1196.7578 478.67969 C 1176.3841 564.97594 1114.0407 636.61133 1024 636.61133 C 933.95933 636.61133 871.61595 564.97594 851.24219 478.67969 z "
       transform="matrix(0.26458333,0,0,0.26458333,-46.271931,0.28312258)" />
  </g>
  <g
     aria-label="I"
     transform="matrix(0,0.62107898,-1,0,-3.2636718e-5,139.05266)"
     id="text6952"
     style="font-size:2046.67px;line-height:1;font-family:Quivira;-inkscape-font-specification:Quivira;letter-spacing:0px;word-spacing:0px;stroke-width:1.2689" />
</svg>
