<?xml version="1.0" encoding="UTF-8" standalone="no"?>
<svg
   width="2047.9999"
   height="2047.9999"
   version="1.1"
   viewBox="0 0 2047.9999 2047.9999"
   id="svg6"
   sodipodi:docname="2644-38.svg"
   inkscape:version="1.1.2 (b8e25be833, 2022-02-05)"
   xmlns:inkscape="http://www.inkscape.org/namespaces/inkscape"
   xmlns:sodipodi="http://sodipodi.sourceforge.net/DTD/sodipodi-0.dtd"
   xmlns="http://www.w3.org/2000/svg"
   xmlns:svg="http://www.w3.org/2000/svg"
   xmlns:rdf="http://www.w3.org/1999/02/22-rdf-syntax-ns#"
   xmlns:cc="http://creativecommons.org/ns#"
   xmlns:dc="http://purl.org/dc/elements/1.1/">
  <metadata
     id="metadata12">
    <rdf:RDF>
      <cc:Work
         rdf:about="">
        <dc:format>image/svg+xml</dc:format>
        <dc:type
           rdf:resource="http://purl.org/dc/dcmitype/StillImage" />
      </cc:Work>
    </rdf:RDF>
  </metadata>
  <defs
     id="defs10" />
  <sodipodi:namedview
     pagecolor="#ffffff"
     bordercolor="#666666"
     borderopacity="1"
     objecttolerance="10"
     gridtolerance="10"
     guidetolerance="10"
     inkscape:pageopacity="0"
     inkscape:pageshadow="2"
     inkscape:window-width="640"
     inkscape:window-height="480"
     id="namedview8"
     showgrid="false"
     inkscape:zoom="0.15296224"
     inkscape:cx="2275.0713"
     inkscape:cy="1637.6591"
     inkscape:current-layer="svg6"
     inkscape:pagecheckerboard="0"
     inkscape:document-units="px"
     units="px"
     scale-x="1"
     showguides="false" />
  <g
     aria-label="♄"
     id="text3786-2"
     style="font-size:541.514px;line-height:1;font-family:'CMU Sans Serif';-inkscape-font-specification:'CMU Sans Serif';letter-spacing:0px;word-spacing:0px;stroke-width:0.264583"
     transform="matrix(3.7795276,0,0,3.7795276,-70.44762,-143.44542)">
    <path
       d="m 216.72905,251.60412 c 20.97662,-37.01756 47.41773,-55.52634 79.32334,-55.52634 32.43443,0 58.17045,12.6036 77.20805,37.81079 19.0376,25.20719 28.5564,54.11614 28.5564,86.72685 0,24.5021 -8.8137,50.85507 -26.44111,79.05892 -17.62741,28.02758 -26.44112,52.70595 -26.44112,74.03512 0,47.594 16.04094,74.03511 48.12283,79.32334 8.28488,0 17.80368,-2.64411 28.5564,-7.93234 l 5.28822,7.93234 c -13.5731,8.8137 -27.49875,13.22055 -41.77695,13.22055 -26.08857,0 -48.12283,-9.60694 -66.10279,-28.82081 -17.97995,-19.21387 -26.96993,-40.4549 -26.96993,-63.72308 0,-18.68505 8.8137,-43.27529 26.44111,-73.7707 17.62741,-30.67169 26.44111,-57.11281 26.44111,-79.32334 0,-25.38347 -5.55263,-48.03469 -16.6579,-67.95366 -10.92899,-20.09525 -26.8818,-30.14287 -47.85841,-30.14287 -27.32248,0 -49.88556,19.7427 -67.68925,59.22809 -3.20537,8.01344 -23.87119,22.44465 -19.56965,10.74358 6.28692,-13.0889 11.6562,-24.64283 19.56965,-40.88644 z"
       style="font-family:Quivira;-inkscape-font-specification:Quivira"
       id="path4633"
       sodipodi:nodetypes="cssscscccssscscsccc" />
  </g>
  <path
     d="M 924.06485,1948.0648 H 624.25966 c -66.62337,0 -136.57791,-83.2792 -209.86362,-249.8376 h -39.97403 l 99.93506,349.7727 H 1573.6428 l 99.9351,-349.7727 h -39.974 c -73.2858,166.5584 -143.2403,249.8376 -209.8637,249.8376 H 1123.935 c -89.7986,0 -130.80087,0 -199.87015,0 z"
     id="path41269-3"
     sodipodi:nodetypes="csccccccscc"
     style="font-size:2046.67px;line-height:1;font-family:Quivira;-inkscape-font-specification:Quivira;letter-spacing:0px;word-spacing:0px" />
  <path
     d="M 924.06485,337.93486 H 624.25966 c -66.62337,0 -136.57791,83.2792 -209.86362,249.8376 h -39.97403 l 99.93506,-349.7727 H 1573.6428 l 99.9351,349.7727 h -39.974 c -73.2858,-166.5584 -143.2403,-249.8376 -209.8637,-249.8376 H 1123.935 c -89.7986,0 -130.80087,0 -199.87015,0 z"
     id="path41269-3-3"
     sodipodi:nodetypes="csccccccscc"
     style="font-size:2046.67px;line-height:1;font-family:Quivira;-inkscape-font-specification:Quivira;letter-spacing:0px;word-spacing:0px" />
  <path
     id="rect41977"
     style="fill:#ff0000;stroke-width:50;stroke-linecap:square;stroke-miterlimit:10;paint-order:stroke fill markers"
     d="m 674.7218,305.00586 h 84.9883 l 0,551.85725 -84.9883,105.16765 z"
     sodipodi:nodetypes="ccccc" />
</svg>
