<?xml version="1.0" encoding="UTF-8" standalone="no"?>
<svg
   width="2047.9999"
   height="2047.9999"
   version="1.1"
   viewBox="0 0 2047.9999 2047.9999"
   id="svg6"
   sodipodi:docname="2644-32.svg"
   inkscape:version="1.1.2 (b8e25be833, 2022-02-05)"
   xmlns:inkscape="http://www.inkscape.org/namespaces/inkscape"
   xmlns:sodipodi="http://sodipodi.sourceforge.net/DTD/sodipodi-0.dtd"
   xmlns="http://www.w3.org/2000/svg"
   xmlns:svg="http://www.w3.org/2000/svg"
   xmlns:rdf="http://www.w3.org/1999/02/22-rdf-syntax-ns#"
   xmlns:cc="http://creativecommons.org/ns#"
   xmlns:dc="http://purl.org/dc/elements/1.1/">
  <metadata
     id="metadata12">
    <rdf:RDF>
      <cc:Work
         rdf:about="">
        <dc:format>image/svg+xml</dc:format>
        <dc:type
           rdf:resource="http://purl.org/dc/dcmitype/StillImage" />
      </cc:Work>
    </rdf:RDF>
  </metadata>
  <defs
     id="defs10" />
  <sodipodi:namedview
     pagecolor="#ffffff"
     bordercolor="#666666"
     borderopacity="1"
     objecttolerance="10"
     gridtolerance="10"
     guidetolerance="10"
     inkscape:pageopacity="0"
     inkscape:pageshadow="2"
     inkscape:window-width="640"
     inkscape:window-height="480"
     id="namedview8"
     showgrid="false"
     inkscape:zoom="0.15296224"
     inkscape:cx="1555.9396"
     inkscape:cy="1376.1566"
     inkscape:current-layer="svg6"
     inkscape:pagecheckerboard="0"
     inkscape:document-units="px"
     units="px"
     scale-x="1" />
  <g
     aria-label="♄"
     id="text3786-2"
     style="font-size:541.514px;line-height:1;font-family:'CMU Sans Serif';-inkscape-font-specification:'CMU Sans Serif';letter-spacing:0px;word-spacing:0px;stroke-width:0.264583"
     transform="matrix(3.7795276,0,0,3.7795276,-351.60459,-1.0700696)" />
  <g
     aria-label="ε "
     id="text2062"
     style="font-size:2046.67px;line-height:1;font-family:Quivira;-inkscape-font-specification:Quivira;letter-spacing:0px;word-spacing:0px"
     transform="translate(4946.8978,790.65048)">
    <path
       d="m -2231.1611,-1377.5641 c 46.6363,0 89.6084,-7.6617 128.9162,-22.9851 39.974,-15.3233 97.8277,-38.246 109.8199,-62.2305 39.8655,-54.2468 38.1426,-74.1714 51.2177,-93.2788 73.2611,-50.5944 221.9772,-120.9811 130.2898,-49.9626 -41.677,44.1648 -76.8475,74.2863 -93.2538,133.6758 -32.5177,56.3223 -42.508,81.4565 -113.1288,116.7669 -69.9545,35.3104 -141.2415,52.9656 -213.861,52.9656 -71.9533,0 -138.2435,-10.6597 -198.8708,-31.9792 -59.9611,-21.3195 -107.9299,-51.9663 -143.9065,-91.9403 -35.9766,-40.6403 -53.9649,-85.9442 -53.9649,-135.9117 0,-43.3052 17.9883,-85.2779 53.9649,-125.9182 26.6493,-29.9805 62.2928,-54.6311 106.9305,-73.9519 -44.6377,-19.3208 -80.2812,-44.3046 -106.9305,-74.9513 -35.9766,-39.974 -53.9649,-81.6136 -53.9649,-124.9188 0,-49.9675 17.9883,-94.9383 53.9649,-134.9124 35.9766,-40.6402 83.9454,-71.6201 143.9065,-92.9396 60.6273,-21.3195 126.9175,-31.9792 198.8708,-31.9792 72.6195,0 143.9065,17.6552 213.861,52.9656 70.6208,35.3104 120.5883,88.9422 149.9026,160.8955 3.3311,11.9922 4.9967,23.3182 4.9967,33.9779 0,37.3091 -19.987,58.9617 -59.961,64.9578 -9.3273,1.9987 -17.6552,2.998 -24.9838,2.998 -26.6493,0 -44.6376,-8.661 -53.9649,-25.9831 -9.3273,-15.9896 -13.9909,-32.3123 -13.9909,-48.9682 0,-5.3299 0.6662,-10.9928 1.9987,-16.9889 0.6663,-5.3299 0.9994,-10.9929 0.9994,-16.989 0,-16.6559 -3.9974,-33.6448 -11.9923,-50.9669 -11.9922,-23.3182 -37.9753,-42.639 -77.9493,-57.9623 -39.3078,-15.3234 -82.2799,-22.9851 -128.9162,-22.9851 -45.9701,0 -87.2766,7.6617 -123.9195,22.9851 -35.9766,14.6571 -65.624,35.9766 -88.9422,63.9584 -22.6519,27.9818 -33.9779,60.6273 -33.9779,97.9364 0,29.9805 11.326,59.2948 33.9779,87.9428 23.3182,27.9819 56.6299,49.3014 99.9351,63.9585 6.6623,2.6649 13.3247,4.9967 19.987,6.9954 36.6428,-5.9961 74.285,-8.9941 112.9266,-8.9941 38.6415,0 67.2896,8.3279 85.9441,24.9837 9.3273,7.9948 13.9909,16.3227 13.9909,24.9838 0,7.9948 -4.6636,16.3227 -13.9909,24.9838 -18.6545,16.6558 -47.3026,24.9837 -85.9441,24.9837 -38.6416,0 -76.2838,-2.998 -112.9266,-8.9941 -6.6623,1.9987 -13.3247,3.9974 -19.987,5.9961 -43.3052,15.3233 -76.6169,36.9759 -99.9351,64.9578 -22.6519,27.9818 -33.9779,57.2961 -33.9779,87.9428 0,36.6429 11.326,69.2883 33.9779,97.9364 23.3182,27.9818 52.9656,49.6344 88.9422,64.9578 36.6429,14.6571 77.9494,21.9857 123.9195,21.9857 z"
       id="path12262"
       sodipodi:nodetypes="sccccccsccscccsccsccscscscsccsccscccscscscccsccs"
       style="fill:#ff0000" />
  </g>
  <g
     aria-label="E "
     id="text2062-7"
     style="font-size:2046.67px;line-height:1;font-family:Quivira;-inkscape-font-specification:Quivira;letter-spacing:0px;word-spacing:0px"
     transform="translate(-974.38863,-693.00382)">
    <path
       d="m 3946.1846,1131.7829 q 0,-49.9675 -39.974,-104.9318 -39.9741,-54.96426 -109.9286,-54.96426 h -49.9675 v -39.97403 h 1149.2532 l 99.935,349.77269 h -39.974 q -109.9286,-249.8376 -209.8636,-249.8376 h -599.6104 v 549.6428 h 399.7402 q 49.9676,0 104.9319,-39.974 54.9642,-39.974 54.9642,-109.9286 v -49.9675 h 39.9741 v 499.6753 h -39.9741 v -49.9675 q 0,-69.9546 -54.9642,-109.9286 -54.9643,-39.974 -104.9319,-39.974 h -399.7402 v 549.6428 h 599.6104 q 99.935,0 209.8636,-249.8377 h 39.974 l -99.935,349.7728 H 3746.3145 v -39.9741 h 49.9675 q 69.9545,0 109.9286,-54.9642 39.974,-54.9643 39.974,-104.9319 z"
       id="path10835" />
  </g>
  <g
     id="g14827"
     transform="translate(-517.56474)">
    <path
       d="m 991.93947,949.87465 c 10.63733,-98.23194 169.41033,-209.86334 289.99843,-209.86334 122.5868,0 219.8568,47.63566 291.81,142.90693 71.9531,95.27127 107.9297,204.53346 107.9297,327.78656 0,92.6063 -33.3117,192.2081 -99.9349,298.8053 -66.6233,105.931 -99.935,199.2036 -99.935,279.8178 0,179.8828 60.6272,279.8178 181.8816,299.8048 31.3129,0 67.2895,-9.9935 107.9297,-29.9805 l 19.987,29.9805 c -51.2999,33.3116 -103.9323,49.9674 -157.8972,49.9674 -98.6024,0 -181.8815,-36.3097 -249.8373,-108.9291 -67.9557,-72.6193 -101.9336,-152.9004 -101.9336,-240.8431 0,-70.6207 33.3116,-163.5601 99.9349,-278.8184 66.6233,-115.9245 99.9349,-215.8594 99.9349,-299.8047 0,-95.9376 -20.9863,-181.5485 -62.959,-256.83277 -41.3064,-75.95056 -101.6005,-113.92581 -180.8822,-113.92581 -103.266,0 -188.5438,74.61808 -255.83337,223.85418 -12.11479,30.287 -95.9422,68.4863 -79.68441,24.2618 23.76159,-49.4699 59.58164,-76.7944 89.49075,-138.18755 z"
       style="font-size:541.514px;line-height:1;font-family:Quivira;-inkscape-font-specification:Quivira;letter-spacing:0px;word-spacing:0px;stroke-width:0.999999"
       id="path4633"
       sodipodi:nodetypes="cssscscccssscscsccc" />
    <g
       aria-label="ε "
       id="g13931"
       style="font-size:2046.67px;line-height:1;font-family:Quivira;-inkscape-font-specification:Quivira;letter-spacing:0px;word-spacing:0px"
       transform="translate(4045.1654,2385.8155)">
      <path
         d="m -2231.1611,-1377.5641 q 69.9545,0 128.9162,-22.9851 59.961,-22.985 77.9493,-58.9617 11.9923,-24.9837 11.9923,-49.9675 0,-8.9941 -0.9994,-17.9883 -1.9987,-7.9948 -1.9987,-15.9896 0,-24.9838 13.9909,-48.9682 13.9909,-25.9831 53.9649,-25.9831 10.9929,0 24.9838,1.9987 59.961,9.9935 59.961,65.9571 0,15.9896 -4.9967,33.978 -43.9714,107.9298 -149.9026,160.8954 -104.9318,52.9656 -213.861,52.9656 -107.9299,0 -198.8708,-31.9792 -89.9416,-31.9793 -143.9065,-91.9403 -53.9649,-60.9604 -53.9649,-135.9117 0,-64.9578 53.9649,-125.9182 39.974,-44.9707 106.9305,-73.9519 -66.9565,-28.9812 -106.9305,-74.9513 -53.9649,-59.961 -53.9649,-124.9188 0,-74.9513 53.9649,-134.9124 53.9649,-60.9603 143.9065,-92.9396 90.9409,-31.9792 198.8708,-31.9792 108.9292,0 213.861,52.9656 105.9312,52.9656 149.9026,160.8955 4.9967,17.9883 4.9967,33.9779 0,55.9636 -59.961,64.9578 -13.9909,2.998 -24.9838,2.998 -39.974,0 -53.9649,-25.9831 -13.9909,-23.9844 -13.9909,-48.9682 0,-7.9948 1.9987,-16.9889 0.9994,-7.9948 0.9994,-16.989 0,-24.9838 -11.9923,-50.9669 -17.9883,-34.9773 -77.9493,-57.9623 -58.9617,-22.9851 -128.9162,-22.9851 -68.9552,0 -123.9195,22.9851 -53.9649,21.9857 -88.9422,63.9584 -33.9779,41.9727 -33.9779,97.9364 0,44.9708 33.9779,87.9428 34.9773,41.9728 99.9351,63.9585 9.9935,3.9974 19.987,6.9954 54.9642,-8.9941 112.9266,-8.9941 57.9623,0 85.9441,24.9837 13.9909,11.9922 13.9909,24.9838 0,11.9922 -13.9909,24.9838 -27.9818,24.9837 -85.9441,24.9837 -57.9624,0 -112.9266,-8.9941 -9.9935,2.998 -19.987,5.9961 -64.9578,22.985 -99.9351,64.9578 -33.9779,41.9727 -33.9779,87.9428 0,54.9643 33.9779,97.9364 34.9773,41.9727 88.9422,64.9578 54.9643,21.9857 123.9195,21.9857 z"
         id="path13929" />
    </g>
  </g>
</svg>
