<?xml version="1.0" encoding="UTF-8" standalone="no"?>
<svg
   width="2047.9999"
   height="2047.9999"
   version="1.1"
   viewBox="0 0 2047.9999 2047.9999"
   id="svg6"
   sodipodi:docname="2644-36.svg"
   inkscape:version="1.1.2 (b8e25be833, 2022-02-05)"
   xmlns:inkscape="http://www.inkscape.org/namespaces/inkscape"
   xmlns:sodipodi="http://sodipodi.sourceforge.net/DTD/sodipodi-0.dtd"
   xmlns="http://www.w3.org/2000/svg"
   xmlns:svg="http://www.w3.org/2000/svg"
   xmlns:rdf="http://www.w3.org/1999/02/22-rdf-syntax-ns#"
   xmlns:cc="http://creativecommons.org/ns#"
   xmlns:dc="http://purl.org/dc/elements/1.1/">
  <metadata
     id="metadata12">
    <rdf:RDF>
      <cc:Work
         rdf:about="">
        <dc:format>image/svg+xml</dc:format>
        <dc:type
           rdf:resource="http://purl.org/dc/dcmitype/StillImage" />
      </cc:Work>
    </rdf:RDF>
  </metadata>
  <defs
     id="defs10" />
  <sodipodi:namedview
     pagecolor="#ffffff"
     bordercolor="#666666"
     borderopacity="1"
     objecttolerance="10"
     gridtolerance="10"
     guidetolerance="10"
     inkscape:pageopacity="0"
     inkscape:pageshadow="2"
     inkscape:window-width="640"
     inkscape:window-height="480"
     id="namedview8"
     showgrid="false"
     inkscape:zoom="0.10816064"
     inkscape:cx="4701.3406"
     inkscape:cy="1576.3591"
     inkscape:current-layer="svg6"
     inkscape:pagecheckerboard="0"
     inkscape:document-units="px"
     units="px"
     scale-x="1" />
  <g
     aria-label="T"
     id="text1947"
     style="font-size:541.514px;line-height:1;font-family:'CMU Sans Serif';-inkscape-font-specification:'CMU Sans Serif';letter-spacing:0px;word-spacing:0px;fill:#00ff00;stroke-width:0.264583"
     transform="matrix(3.7795276,0,0,3.7795276,-2210.1083,913.75623)">
    <path
       d="m 81.696688,139.11778 c 0,8.8137 8.817149,18.06809 15.868112,27.76316 7.05096,9.69508 16.74603,14.54262 29.08522,14.54262 h 13.22056 V 192 H -18.776094 v -10.57644 h 13.2205561 c 12.3391859,0 22.0342599,-4.84754 29.0852229,-14.54262 7.050963,-9.69507 16.028439,-18.95092 15.868112,-27.76316 v -290.85224 h -84.615003 c -17.627408,0 -36.136186,22.03426 -55.526334,66.102782 h -10.57645 l 26.441116,-92.543892 H 205.97336 l 26.44111,92.543892 H 221.83803 C 202.44788,-129.7002 183.9391,-151.73446 166.31169,-151.73446 H 81.696688 Z"
       style="font-family:Quivira;-inkscape-font-specification:Quivira;fill:#00ff00"
       id="path4654"
       sodipodi:nodetypes="sssccccssscsccccccscs" />
  </g>
  <g
     aria-label="♄"
     id="text3786-2"
     style="font-size:541.514px;line-height:1;font-family:'CMU Sans Serif';-inkscape-font-specification:'CMU Sans Serif';letter-spacing:0px;word-spacing:0px;stroke-width:0.264583"
     transform="matrix(3.7795276,0,0,3.7795276,2449.2809,424.22328)">
    <path
       d="m 216.72905,156.41611 v 95.18801 c 20.97662,-37.01756 47.41773,-55.52634 79.32334,-55.52634 32.43443,0 58.17045,12.6036 77.20805,37.81079 19.0376,25.20719 28.5564,54.11614 28.5564,86.72685 0,24.5021 -8.8137,50.85507 -26.44111,79.05892 -17.62741,28.02758 -26.44112,52.70595 -26.44112,74.03512 0,47.594 16.04094,74.03511 48.12283,79.32334 8.28488,0 17.80368,-2.64411 28.5564,-7.93234 l 5.28822,7.93234 c -13.5731,8.8137 -27.49875,13.22055 -41.77695,13.22055 -26.08857,0 -48.12283,-9.60694 -66.10279,-28.82081 -17.97995,-19.21387 -26.96993,-40.4549 -26.96993,-63.72308 0,-18.68505 8.8137,-43.27529 26.44111,-73.7707 17.62741,-30.67169 26.44111,-57.11281 26.44111,-79.32334 0,-25.38347 -5.55263,-48.03469 -16.6579,-67.95366 -10.92899,-20.09525 -26.8818,-30.14287 -47.85841,-30.14287 -27.32248,0 -49.88556,19.7427 -67.68925,59.22809 v 99.41859 c 0,8.8137 3.52548,18.06809 10.57645,27.76316 7.05096,9.69508 16.74603,14.54262 29.08522,14.54262 h 13.22056 v 10.57644 H 110.96461 v -10.57644 h 13.22055 c 12.33919,0 22.03426,-4.84754 29.08522,-14.54262 7.05097,-9.69507 10.57645,-18.94946 10.57645,-27.76316 V 156.41611 c 14.6638,-7.83912 29.71119,-32 52.88222,0 z"
       style="font-family:Quivira;-inkscape-font-specification:Quivira"
       id="path4633"
       sodipodi:nodetypes="ccssscscccssscscscsssccccssscc" />
  </g>
  <g
     aria-label="♄"
     id="text3786-2-8"
     style="font-size:541.514px;line-height:1;font-family:'CMU Sans Serif';-inkscape-font-specification:'CMU Sans Serif';letter-spacing:0px;word-spacing:0px;stroke-width:0.264583"
     transform="matrix(3.7795276,0,0,3.7795276,174.88604,-1.0700696)">
    <path
       d="m 216.72905,251.60412 c 20.97662,-37.01756 47.41773,-55.52634 79.32334,-55.52634 32.43443,0 58.17045,12.6036 77.20805,37.81079 19.0376,25.20719 28.5564,54.11614 28.5564,86.72685 0,24.5021 -8.8137,50.85507 -26.44111,79.05892 -17.62741,28.02758 -26.44112,52.70595 -26.44112,74.03512 0,47.594 16.04094,74.03511 48.12283,79.32334 8.28488,0 17.80368,-2.64411 28.5564,-7.93234 l 5.28822,7.93234 c -13.5731,8.8137 -27.49875,13.22055 -41.77695,13.22055 -26.08857,0 -48.12283,-9.60694 -66.10279,-28.82081 -17.97995,-19.21387 -26.96993,-40.4549 -26.96993,-63.72308 0,-18.68505 8.8137,-43.27529 26.44111,-73.7707 17.62741,-30.67169 26.44111,-57.11281 26.44111,-79.32334 0,-25.38347 -5.55263,-48.03469 -16.6579,-67.95366 -10.92899,-20.09525 -26.8818,-30.14287 -47.85841,-30.14287 -27.32248,0 -49.88556,19.7427 -67.68925,59.22809 -3.20537,8.01344 -23.87119,22.44465 -19.56965,10.74358 6.28692,-13.0889 11.6562,-24.64283 19.56965,-40.88644 z"
       style="font-family:Quivira;-inkscape-font-specification:Quivira"
       id="path4633-0"
       sodipodi:nodetypes="cssscscccssscscsccc" />
  </g>
  <g
     aria-label="ρ"
     id="text5954"
     style="font-size:1838.22px;line-height:1;font-family:Quivira;-inkscape-font-specification:Quivira;letter-spacing:0px;word-spacing:0px;fill:#ff0000"
     transform="translate(2246.1981,-324.55907)">
    <path
       d="m 1807.9586,126.73767 c -41.2881,0 -81.3795,14.36109 -120.2741,43.08328 -38.2963,28.72219 -67.916,70.30952 -88.8593,124.762 -20.3449,53.8541 -30.5173,113.09361 -30.5173,177.71854 0,64.02654 10.1724,123.26605 30.5173,177.71853 20.9433,54.45248 50.563,96.03981 88.8593,124.762 38.8946,28.72219 78.986,43.08328 120.2741,43.08328 41.8865,0 81.9779,-14.36109 120.2742,-43.08328 38.8946,-28.72219 68.5144,-70.30952 88.8593,-124.762 20.9433,-54.45248 31.4149,-113.69199 31.4149,-177.71853 0,-64.62493 -10.4716,-123.86444 -31.4149,-177.71854 -20.3449,-54.45248 -49.9647,-96.03981 -88.8593,-124.762 -38.2963,-28.72219 -78.3877,-43.08328 -120.2742,-43.08328 z m -374.286,345.56382 c 0,-75.99412 16.1562,-146.30364 48.4687,-210.92857 32.3125,-65.2233 78.3877,-115.18794 138.2256,-149.89391 60.4363,-34.705977 122.9668,-52.058965 187.5917,-52.058965 65.2233,0 127.7539,17.352988 187.5918,52.058965 60.4363,34.70597 106.8106,84.67061 139.1231,149.89391 32.3125,64.62493 48.4687,134.93445 48.4687,210.92857 0,75.99412 -16.1562,146.60283 -48.4687,211.82613 -32.3125,64.62492 -78.6868,114.29037 -139.1231,148.99634 -59.8379,34.70597 -122.3685,52.05896 -187.5918,52.05896 -64.6249,0 -126.8563,-17.35299 -186.6942,-52.05896 -19.1481,-10.77082 -36.8003,-23.03759 -52.9565,-36.8003 v 148.66773 h -134.6353 z"
       id="path11839"
       sodipodi:nodetypes="sccsccsccsccssccsccsccsccccs" />
  </g>
  <g
     aria-label="♄"
     id="text3786-2-9"
     style="font-size:541.514px;line-height:1;font-family:'CMU Sans Serif';-inkscape-font-specification:'CMU Sans Serif';letter-spacing:0px;word-spacing:0px;stroke-width:0.264583"
     transform="matrix(3.7795276,0,0,3.7795276,-812.45961,2028.0692)">
    <path
       d="m 216.72905,251.60412 c 20.97662,-37.01756 47.41773,-55.52634 79.32334,-55.52634 32.43443,0 58.17045,12.6036 77.20805,37.81079 19.0376,25.20719 28.5564,54.11614 28.5564,86.72685 0,24.5021 -8.8137,50.85507 -26.44111,79.05892 -17.62741,28.02758 -26.44112,52.70595 -26.44112,74.03512 0,47.594 16.04094,74.03511 48.12283,79.32334 8.28488,0 17.80368,-2.64411 28.5564,-7.93234 l 5.28822,7.93234 c -13.5731,8.8137 -27.49875,13.22055 -41.77695,13.22055 -26.08857,0 -48.12283,-9.60694 -66.10279,-28.82081 -17.97995,-19.21387 -26.96993,-40.4549 -26.96993,-63.72308 0,-18.68505 8.8137,-43.27529 26.44111,-73.7707 17.62741,-30.67169 26.44111,-57.11281 26.44111,-79.32334 0,-25.38347 -5.55263,-48.03469 -16.6579,-67.95366 -10.92899,-20.09525 -26.8818,-30.14287 -47.85841,-30.14287 -27.32248,0 -49.88556,19.7427 -67.68925,59.22809 -3.20537,8.01344 -23.87119,22.44465 -19.56965,10.74358 6.28692,-13.0889 11.6562,-24.64283 19.56965,-40.88644 z"
       style="font-family:Quivira;-inkscape-font-specification:Quivira"
       id="path4633-01"
       sodipodi:nodetypes="cssscscccssscscsccc" />
  </g>
  <path
     d="m 182.05286,4119.5794 h -299.80519 c -66.62337,0 -136.57791,-83.2792 -209.86362,-249.8376 h -39.97403 l 99.93506,349.7727 H 831.63081 l 99.9351,-349.7727 h -39.974 c -73.2858,166.5584 -143.2403,249.8376 -209.8637,249.8376 h -299.8052 c -89.7986,0 -130.80087,0 -199.87015,0 z"
     id="path41269-3"
     sodipodi:nodetypes="csccccccscc"
     style="font-size:2046.67px;line-height:1;font-family:Quivira;-inkscape-font-specification:Quivira;letter-spacing:0px;word-spacing:0px" />
  <path
     d="M 2796.2801,466.5467 H 2496.475 c -66.6234,0 -136.5779,83.2792 -209.8636,249.8376 h -39.9741 l 99.9351,-349.7727 H 3445.858 l 99.9351,349.7727 h -39.974 C 3432.5333,549.8259 3362.5788,466.5467 3295.9554,466.5467 h -299.8052 c -89.7985,0 -130.8008,0 -199.8701,0 z"
     id="path41269-3-3"
     sodipodi:nodetypes="csccccccscc"
     style="font-size:2046.67px;line-height:1;font-family:Quivira;-inkscape-font-specification:Quivira;letter-spacing:0px;word-spacing:0px" />
  <path
     id="rect41977"
     style="fill:#ff0000;stroke-width:50;stroke-linecap:square;stroke-miterlimit:10;paint-order:stroke fill markers"
     d="m -871.61355,1081.7199 h 99.68047 v 435.0167 l -99.68047,64.6983 z"
     sodipodi:nodetypes="ccccc" />
  <text
     xml:space="preserve"
     style="font-size:2046.67px;line-height:1;font-family:Quivira;-inkscape-font-specification:Quivira;letter-spacing:0px;word-spacing:0px"
     x="1768.3317"
     y="3789.3914"
     id="text4201"><tspan
       sodipodi:role="line"
       id="tspan4199"
       x="1768.3317"
       y="3789.3914">♅</tspan></text>
  <path
     id="rect5305"
     style="fill:#696969;stroke-width:50;stroke-linecap:square;stroke-miterlimit:10;paint-order:stroke fill markers"
     d="m 983.24542,645.59363 h 99.99998 v 240.66608 l -99.99998,136.47159 z"
     sodipodi:nodetypes="ccccc" />
  <rect
     style="fill:#7cfc00;stroke-width:49.9999;stroke-linecap:square;stroke-miterlimit:10;paint-order:stroke fill markers"
     id="rect5305-8"
     width="100"
     height="1400"
     x="-614.02258"
     y="-317.8634"
     transform="rotate(90)" />
  <path
     style="color:#000000;fill:#ff0000;stroke-linecap:square;stroke-miterlimit:10;-inkscape-stroke:none;paint-order:stroke fill markers"
     d="m 1024,116.61133 c -165.09303,0 -300,134.90697 -300,300 0,165.09303 134.90697,300 300,300 165.093,0 300,-134.90697 300,-300 0,-165.09303 -134.907,-300 -300,-300 z m 0,80 c 111.0491,0 180,108.95093 180,220 0,111.04907 -68.9509,220 -180,220 -111.04907,0 -180,-108.95093 -180,-220 0,-111.04907 68.95093,-220 180,-220 z"
     id="path5409"
     sodipodi:nodetypes="ssssssssss" />
  <g
     aria-label="I"
     transform="matrix(0,0.62107898,-1,0,-3.2636718e-5,139.05266)"
     id="text6952"
     style="font-size:2046.67px;line-height:1;font-family:Quivira;-inkscape-font-specification:Quivira;letter-spacing:0px;word-spacing:0px;stroke-width:1.2689">
    <path
       d="m 746.70273,-1732.7909 v 39.9741 H 696.7352 q -69.95455,0 -109.92857,54.9642 -39.97402,54.9643 -39.97402,104.9319 v 999.35057 q 0,49.96753 39.97402,104.93181 39.97402,54.96428 109.92857,54.96428 h 49.96753 v 39.97403 H 147.09236 v -39.97403 h 49.96753 q 69.95455,0 109.92857,-54.96428 39.97402,-54.96428 39.97402,-104.93181 v -999.35057 q 0,-49.9676 -39.97402,-104.9319 -39.97402,-54.9642 -109.92857,-54.9642 h -49.96753 v -39.9741 z"
       id="path7697"
       style="stroke-width:1.2689" />
  </g>
  <g
     aria-label="I"
     transform="rotate(90,2319.6334,2289.3472)"
     id="text6952-7"
     style="font-size:2046.67px;line-height:1;font-family:Quivira;-inkscape-font-specification:Quivira;letter-spacing:0px;word-spacing:0px">
    <path
       d="m 746.70273,-1732.7909 v 39.9741 H 656.7352 c -46.63637,0 -83.27922,18.3214 -109.92857,54.9642 -26.64935,36.6429 -39.97402,71.6202 -39.97402,104.9319 v 999.35057 c 0,33.31169 13.32467,68.28896 39.97402,104.93181 26.64935,36.64285 63.2922,54.96428 109.92857,54.96428 h 89.96753 v 39.97403 H 147.09236 v -39.97403 h 89.96753 c 46.63637,0 83.27922,-18.32143 109.92857,-54.96428 26.64935,-36.64285 39.97402,-71.62012 39.97402,-104.93181 v -999.35057 c 0,-33.3117 -13.32467,-68.289 -39.97402,-104.9319 -26.64935,-36.6428 -63.2922,-54.9642 -109.92857,-54.9642 h -89.96753 v -39.9741 z"
       id="path7697-6"
       sodipodi:nodetypes="ccssssssccccssssssccc" />
  </g>
</svg>
