<?xml version="1.0" encoding="UTF-8" standalone="no"?>
<svg
   width="541.86664mm"
   height="541.86664mm"
   version="1.1"
   viewBox="0 0 2047.9999 2047.9999"
   id="svg6"
   sodipodi:docname="jumble.svg"
   inkscape:version="1.1.2 (b8e25be833, 2022-02-05)"
   xmlns:inkscape="http://www.inkscape.org/namespaces/inkscape"
   xmlns:sodipodi="http://sodipodi.sourceforge.net/DTD/sodipodi-0.dtd"
   xmlns="http://www.w3.org/2000/svg"
   xmlns:svg="http://www.w3.org/2000/svg"
   xmlns:rdf="http://www.w3.org/1999/02/22-rdf-syntax-ns#"
   xmlns:cc="http://creativecommons.org/ns#"
   xmlns:dc="http://purl.org/dc/elements/1.1/">
  <metadata
     id="metadata12">
    <rdf:RDF>
      <cc:Work
         rdf:about="">
        <dc:format>image/svg+xml</dc:format>
        <dc:type
           rdf:resource="http://purl.org/dc/dcmitype/StillImage" />
      </cc:Work>
    </rdf:RDF>
  </metadata>
  <defs
     id="defs10" />
  <sodipodi:namedview
     pagecolor="#ffffff"
     bordercolor="#666666"
     borderopacity="1"
     objecttolerance="10"
     gridtolerance="10"
     guidetolerance="10"
     inkscape:pageopacity="0"
     inkscape:pageshadow="2"
     inkscape:window-width="640"
     inkscape:window-height="480"
     id="namedview8"
     showgrid="false"
     inkscape:zoom="0.15296224"
     inkscape:cx="764.89466"
     inkscape:cy="1232.3303"
     inkscape:current-layer="svg6"
     inkscape:pagecheckerboard="0"
     inkscape:document-units="px"
     units="px"
     scale-x="1" />
  <g
     aria-label="♄"
     id="text3786"
     style="font-size:541.514px;line-height:1;font-family:'CMU Sans Serif';-inkscape-font-specification:'CMU Sans Serif';letter-spacing:0px;word-spacing:0px;stroke-width:0.0699955"
     transform="matrix(3.78,0,0,3.78,804.34978,-1.1937706)">
    <path
       d="m 216.72905,156.41611 v 95.18801 q 31.46493,-55.52634 79.32334,-55.52634 48.65165,0 77.20805,37.81079 28.5564,37.81079 28.5564,86.72685 0,36.75315 -26.44111,79.05892 -26.44112,42.04137 -26.44112,74.03512 0,71.391 48.12283,79.32334 12.42732,0 28.5564,-7.93234 l 5.28822,7.93234 q -20.35965,13.22055 -41.77695,13.22055 -39.13285,0 -66.10279,-28.82081 -26.96993,-28.82081 -26.96993,-63.72308 0,-28.02758 26.44111,-73.7707 26.44111,-46.00754 26.44111,-79.32334 0,-38.0752 -16.6579,-67.95366 -16.39349,-30.14287 -47.85841,-30.14287 -40.98372,0 -67.68925,59.22809 v 99.41859 q 0,13.22055 10.57645,27.76316 10.57644,14.54262 29.08522,14.54262 h 13.22056 v 10.57644 H 110.96461 v -10.57644 h 13.22055 q 18.50878,0 29.08522,-14.54262 10.57645,-14.54261 10.57645,-27.76316 V 156.41611 H 110.96461 V 129.975 h 52.88222 v -13.22056 q 0,-13.22055 -10.57645,-27.763163 Q 142.69394,74.448665 124.18516,74.448665 H 110.96461 V 63.87222 h 158.64667 v 10.576445 h -13.22056 q -18.50878,0 -29.08522,14.542612 -10.57645,14.542613 -10.57645,27.763163 V 129.975 h 52.88223 v 26.44111 z"
       style="font-family:Quivira;-inkscape-font-specification:Quivira;stroke-width:0.0699955"
       id="path17432" />
  </g>
  <g
     aria-label="♅"
     id="text3751"
     style="font-size:2046.67px;line-height:1;font-family:Quivira;-inkscape-font-specification:Quivira;letter-spacing:0px;word-spacing:0px"
     transform="translate(1364.3881,5.1165756)">
    <path
       d="m -390.3557,984.81236 h -349.77271 v 449.70774 c 0,33.3117 13.32468,68.289 39.97403,104.9319 26.64935,36.6428 63.2922,54.9642 109.92856,54.9642 h 49.96753 v 39.9741 h -599.61041 v -39.9741 h 49.9676 c 46.6363,0 83.2792,-18.3214 109.92855,-54.9642 26.64935,-36.6429 39.97402,-71.6202 39.97402,-104.9319 V 435.16953 c 0,-33.31169 -13.32467,-68.28896 -39.97402,-104.93181 -26.64935,-36.64286 -63.29225,-54.96429 -109.92855,-54.96429 h -49.9676 v -39.97402 h 599.61041 v 39.97402 h -49.96753 c -46.63636,0 -83.27921,18.32143 -109.92856,54.96429 -26.64935,36.64285 -39.97403,71.62012 -39.97403,104.93181 V 884.8773 H -390.3557 V 235.29941 h 99.93507 V 884.8773 H 59.352078 V 435.16953 c 0,-33.31169 -13.324675,-68.28896 -39.974025,-104.93181 -26.6493493,-36.64286 -63.292205,-54.96429 -109.928567,-54.96429 h -49.967526 v -39.97402 h 599.61036 v 39.97402 h -49.96753 c -46.63636,0 -83.27922,18.32143 -109.92857,54.96429 -26.64935,36.64285 -39.97402,71.62012 -39.97402,104.93181 v 999.35057 c 0,33.3117 13.32467,68.289 39.97402,104.9319 26.64935,36.6428 63.29221,54.9642 109.92857,54.9642 h 49.96753 v 39.9741 h -599.61036 v -39.9741 h 49.967526 c 46.636362,0 83.2792177,-18.3214 109.928567,-54.9642 26.64935,-36.6429 39.974025,-71.6202 39.974025,-104.9319 V 984.81236 H -290.42063 v 753.51034 c -30.281,0 -68.80423,0 -99.93507,0 z"
       id="path4709"
       sodipodi:nodetypes="ccsssccccssssssccccsssccccccsssccccssssssccccsssccccc" />
  </g>
  <g
     aria-label="♃"
     id="text7834"
     style="font-size:2046.67px;line-height:1;font-family:Quivira;-inkscape-font-specification:Quivira;letter-spacing:0px;word-spacing:0px"
     transform="translate(1594.3862,41.073076)">
    <path
       d="m -2004.4545,1023.8071 q 204.8669,-104.9318 260.8305,-208.86426 55.9637,-104.93181 55.9637,-195.87272 0,-100.93441 -17.9883,-169.8896 -17.9883,-69.95455 -55.9637,-114.92532 -36.9759,-44.97078 -93.9389,-44.97078 -64.9578,0 -122.9201,49.96753 -56.963,49.96753 -110.928,134.91233 -52.9655,84.9448 -52.9655,164.89285 h -36.976 V 189.34936 h 36.976 q 0,24.98376 22.985,51.96623 23.9844,25.98312 53.965,25.98312 29.9805,0 84.9448,-38.97468 54.9642,-38.97467 124.9188,-38.97467 108.9292,0 193.874,57.96233 85.9441,57.96234 129.9156,141.90779 43.9714,82.9461 43.9714,209.86363 0,116.92402 -50.9669,220.85648 -30.9798,62.95909 -73.9519,103.93247 h 442.7123 V 399.21299 q 0,-49.96753 -39.974,-104.93182 -39.9741,-54.96428 -109.9286,-54.96428 h -49.9675 v -39.97402 h 599.61034 v 39.97402 h -49.96753 q -69.95455,0 -109.92857,54.96428 -39.97402,54.96429 -39.97402,104.93182 v 999.35061 q 0,49.9675 39.97402,104.9318 39.97402,54.9643 109.92857,54.9643 h 49.96753 v 39.974 h -599.61034 v -39.974 h 49.9675 q 69.9545,0 109.9286,-54.9643 39.974,-54.9643 39.974,-104.9318 v -374.7565 z"
       id="path8540" />
  </g>
  <g
     aria-label="♀"
     id="text11401"
     style="font-size:2046.67px;line-height:1;font-family:Quivira;-inkscape-font-specification:Quivira;letter-spacing:0px;word-spacing:0px"
     transform="translate(275.68841,2855.0531)">
    <path
       d="m 638.88266,-983.06335 q -51.96623,44.97078 -79.94805,129.91558 -27.98182,83.94545 -27.98182,184.87987 0,90.9409 27.98182,175.8857 27.98182,83.94545 79.94805,128.91623 52.96558,44.97078 108.92922,44.97078 56.96298,0 108.92921,-44.97078 52.96558,-44.97078 80.9474,-128.91623 27.98182,-84.9448 27.98182,-175.8857 0,-100.93442 -27.98182,-184.87987 -27.98182,-84.9448 -80.9474,-129.91558 -51.96623,-44.97075 -108.92921,-44.97075 -55.96364,0 -108.92922,44.97075 z m 9.99351,751.51166 q -55.96364,-13.99091 -108.92922,-44.97078 -100.93441,-57.96233 -154.89934,-165.8922 -53.96494,-108.92921 -53.96494,-225.85323 0,-126.91753 53.96494,-234.8474 53.96493,-108.9292 153.89999,-166.8915 100.93441,-57.9624 208.86428,-57.9624 108.92921,0 208.86427,57.9624 100.93445,57.9623 154.89935,166.8915 53.9649,107.92987 53.9649,234.8474 0,116.92402 -53.9649,225.85323 -53.9649,107.92987 -153.9,165.8922 -53.96493,30.97987 -108.92921,44.97078 v 162.894151 h 216.85911 v 99.93506 H 848.74629 v 79.948049 q 0,49.96753 24.98376,89.94155 24.98377,39.97403 94.93831,39.97403 h 49.96754 v 39.97402 H 478.98656 v -39.97402 h 49.96753 q 69.95455,0 94.93831,-39.97403 24.98377,-39.97402 24.98377,-89.94155 V 31.277521 H 431.01773 v -99.93506 h 217.85844 z"
       id="path12465" />
  </g>
</svg>
