<?xml version="1.0" encoding="UTF-8" standalone="no"?>
<svg
   version="1.1"
   viewBox="0 0 10 10"
   id="svg10"
   sodipodi:docname="1f77b.svg"
   inkscape:version="1.1.2 (b8e25be833, 2022-02-05)"
   xmlns:inkscape="http://www.inkscape.org/namespaces/inkscape"
   xmlns:sodipodi="http://sodipodi.sourceforge.net/DTD/sodipodi-0.dtd"
   xmlns="http://www.w3.org/2000/svg"
   xmlns:svg="http://www.w3.org/2000/svg">
  <defs
     id="defs14" />
  <sodipodi:namedview
     id="namedview12"
     pagecolor="#ffffff"
     bordercolor="#666666"
     borderopacity="1.0"
     inkscape:pageshadow="2"
     inkscape:pageopacity="0.0"
     inkscape:pagecheckerboard="0"
     showgrid="false"
     inkscape:lockguides="true"
     inkscape:zoom="45.254834"
     inkscape:cx="4.9276504"
     inkscape:cy="3.1488349"
     inkscape:current-layer="g8"
     showguides="false" />
  <g
     transform="matrix(.82 0 0 .82333 .08 .06)"
     stroke-linejoin="round"
     stroke-miterlimit="10"
     id="g8">
    <g
       id="g839"
       transform="matrix(1.2190191,0,0,1.2140472,-0.0950955,0.53488599)"
       style="stroke-width:0.800337;stroke-miterlimit:4;stroke-dasharray:none">
      <path
         id="path886-8"
         style="opacity:0.999;fill:none;stroke:#008000;stroke-width:0.800337;stroke-linejoin:round;stroke-miterlimit:4;stroke-dasharray:none;paint-order:stroke fill markers"
         d="M 6.1,6.5015169 A 1.1,1.101517 0 0 1 5.0000001,7.6030339 1.1,1.101517 0 0 1 3.9,6.5015169 1.1,1.101517 0 0 1 5.0000001,5.4 1.1,1.101517 0 0 1 6.1,6.5015169 Z" />
      <path
         id="path886-8-9"
         style="opacity:0.999;fill:none;stroke:#008000;stroke-width:0.800337;stroke-linejoin:round;stroke-miterlimit:4;stroke-dasharray:none;paint-order:stroke fill markers"
         d="M 6.1,2.0015169 A 1.1,1.101517 0 0 1 5.0000001,3.1030339 1.1,1.101517 0 0 1 3.9,2.0015169 1.1,1.101517 0 0 1 5.0000001,0.90000001 1.1,1.101517 0 0 1 6.1,2.0015169 Z" />
      <path
         style="opacity:0.999;fill:#008000;stroke:#ff0000;stroke-width:0.800337;stroke-linejoin:round;stroke-miterlimit:4;stroke-dasharray:none;paint-order:stroke fill markers"
         d="M 9,4.399999 H 1"
         id="path864"
         sodipodi:nodetypes="cc" />
      <path
         id="path1506"
         style="fill:none;stroke:#7cfc00;stroke-width:0.800337;stroke-miterlimit:4;stroke-dasharray:none;paint-order:stroke fill markers"
         d="M 9,7.5999999 A 1.6,3.0999999 0 0 1 7.8686291,6.6920309 1.6,3.0999999 0 0 1 7.4,4.5" />
      <path
         id="path1730"
         style="fill:none;stroke:#7cfc00;stroke-width:0.800337;stroke-miterlimit:4;stroke-dasharray:none;paint-order:stroke fill markers"
         d="M 1,7.5999999 A 1.6,3.0999999 0 0 0 2.1313709,6.6920309 1.6,3.0999999 0 0 0 2.6,4.5" />
    </g>
  </g>
</svg>
