<?xml version="1.0" encoding="UTF-8" standalone="no"?>
<svg
   width="10mm"
   height="10mm"
   version="1.1"
   viewBox="0 0 10 10"
   id="svg6"
   sodipodi:docname="2643-33.svg"
   inkscape:version="1.1.2 (b8e25be833, 2022-02-05)"
   xmlns:inkscape="http://www.inkscape.org/namespaces/inkscape"
   xmlns:sodipodi="http://sodipodi.sourceforge.net/DTD/sodipodi-0.dtd"
   xmlns="http://www.w3.org/2000/svg"
   xmlns:svg="http://www.w3.org/2000/svg"
   xmlns:rdf="http://www.w3.org/1999/02/22-rdf-syntax-ns#"
   xmlns:cc="http://creativecommons.org/ns#"
   xmlns:dc="http://purl.org/dc/elements/1.1/">
  <metadata
     id="metadata12">
    <rdf:RDF>
      <cc:Work
         rdf:about="">
        <dc:format>image/svg+xml</dc:format>
        <dc:type
           rdf:resource="http://purl.org/dc/dcmitype/StillImage" />
      </cc:Work>
    </rdf:RDF>
  </metadata>
  <defs
     id="defs10" />
  <sodipodi:namedview
     pagecolor="#ffffff"
     bordercolor="#666666"
     borderopacity="1"
     objecttolerance="10"
     gridtolerance="10"
     guidetolerance="10"
     inkscape:pageopacity="0"
     inkscape:pageshadow="2"
     inkscape:window-width="640"
     inkscape:window-height="480"
     id="namedview8"
     showgrid="false"
     inkscape:zoom="13.844562"
     inkscape:cx="5.6339812"
     inkscape:cy="21.055199"
     inkscape:current-layer="svg6"
     inkscape:pagecheckerboard="0"
     inkscape:document-units="mm" />
  <path
     id="path2"
     style="color:#000000;font-style:normal;font-variant:normal;font-weight:normal;font-stretch:normal;font-size:medium;line-height:normal;font-family:sans-serif;font-variant-ligatures:normal;font-variant-position:normal;font-variant-caps:normal;font-variant-numeric:normal;font-variant-alternates:normal;font-variant-east-asian:normal;font-feature-settings:normal;font-variation-settings:normal;text-indent:0;text-align:start;text-decoration:none;text-decoration-line:none;text-decoration-style:solid;text-decoration-color:#000000;letter-spacing:normal;word-spacing:normal;text-transform:none;writing-mode:lr-tb;direction:ltr;text-orientation:mixed;dominant-baseline:auto;baseline-shift:baseline;text-anchor:start;white-space:normal;shape-padding:0;shape-margin:0;inline-size:0;clip-rule:nonzero;display:inline;overflow:visible;visibility:visible;opacity:0.999;isolation:auto;mix-blend-mode:normal;color-interpolation:sRGB;color-interpolation-filters:linearRGB;solid-color:#000000;solid-opacity:1;vector-effect:none;fill:#000000;fill-opacity:1;fill-rule:nonzero;stroke:none;stroke-width:3.77953;stroke-linecap:butt;stroke-linejoin:miter;stroke-miterlimit:10;stroke-dasharray:none;stroke-dashoffset:0;stroke-opacity:1;paint-order:stroke fill markers;color-rendering:auto;image-rendering:auto;shape-rendering:auto;text-rendering:auto;enable-background:accumulate;stop-color:#000000;stop-opacity:1"
     d="M 20.011719 1.3222656 L 17.185547 2.3984375 L 21.957031 14.904297 C 21.139753 16.71175 20.363413 18.465543 19.576172 20.240234 C 19.276333 19.469012 19.051385 18.810882 18.742188 18.033203 C 17.58374 15.119536 16.391963 12.238009 15.419922 9.9589844 C 14.4569 7.7011065 13.815694 6.2107424 13.376953 5.4414062 C 12.664843 4.1165246 11.50666 3.2634114 10.378906 2.7246094 C 9.2511525 2.1858074 8.1550606 1.9335936 7.1816406 1.9335938 L 7.1816406 4.953125 C 7.5262557 4.953125 8.3594443 5.1107839 9.0800781 5.4550781 C 9.8007116 5.7993719 10.416208 6.3101679 10.71875 6.8730469 A 1.5119622 1.5119622 0 0 0 10.740234 6.9101562 C 10.846592 7.0949643 11.683896 8.8942033 12.644531 11.146484 C 13.605167 13.398765 14.78891 16.259561 15.9375 19.148438 C 16.641173 20.918281 17.209162 22.492986 17.828125 24.146484 C 17.782066 24.255091 17.709198 24.408595 17.664062 24.515625 C 16.960235 26.184664 16.376474 27.655148 15.953125 28.841797 C 15.529777 30.028446 15.220703 30.735558 15.220703 31.720703 C 15.220703 34.022489 17.010313 35.861328 19.267578 35.861328 C 21.417409 35.861328 23.376874 34.037248 23.349609 31.697266 C 23.341118 30.968463 23.161608 30.35766 22.90625 29.46875 C 22.650892 28.57984 22.295964 27.507734 21.873047 26.300781 C 21.66382 25.703673 21.337397 24.911202 21.097656 24.257812 C 21.824845 22.568562 22.630944 20.748989 23.472656 18.875 L 26.035156 25.59375 L 28.863281 24.515625 L 25.234375 15.005859 C 25.342385 14.771876 25.439891 14.549273 25.548828 14.314453 C 27.20006 10.755121 28.766728 7.4687134 30.091797 4.6992188 L 26.744141 4.6992188 C 25.810769 6.6535462 24.778239 8.8419632 23.732422 11.070312 L 20.011719 1.3222656 z M 19.376953 28.40625 C 19.600395 29.076059 19.852934 29.797589 19.998047 30.302734 C 20.227176 31.100342 20.322562 31.75976 20.322266 31.734375 C 20.332796 32.638134 20.002661 32.841797 19.267578 32.841797 C 18.967842 32.841797 18.248047 32.204279 18.248047 31.720703 C 18.248047 31.903077 18.410441 30.9535 18.800781 29.859375 C 18.936857 29.477952 19.199185 28.864793 19.376953 28.40625 z "
     transform="scale(0.26458333)" />
</svg>
