<?xml version="1.0" encoding="UTF-8" standalone="no"?>
<svg
   width="10mm"
   height="10mm"
   version="1.1"
   viewBox="0 0 10 10"
   id="svg10"
   sodipodi:docname="2644-37.svg"
   inkscape:version="1.1.2 (b8e25be833, 2022-02-05)"
   xmlns:inkscape="http://www.inkscape.org/namespaces/inkscape"
   xmlns:sodipodi="http://sodipodi.sourceforge.net/DTD/sodipodi-0.dtd"
   xmlns="http://www.w3.org/2000/svg"
   xmlns:svg="http://www.w3.org/2000/svg"
   xmlns:rdf="http://www.w3.org/1999/02/22-rdf-syntax-ns#"
   xmlns:cc="http://creativecommons.org/ns#"
   xmlns:dc="http://purl.org/dc/elements/1.1/">
  <metadata
     id="metadata16">
    <rdf:RDF>
      <cc:Work
         rdf:about="">
        <dc:format>image/svg+xml</dc:format>
        <dc:type
           rdf:resource="http://purl.org/dc/dcmitype/StillImage" />
      </cc:Work>
    </rdf:RDF>
  </metadata>
  <defs
     id="defs14" />
  <sodipodi:namedview
     pagecolor="#ffffff"
     bordercolor="#666666"
     borderopacity="1"
     objecttolerance="10"
     gridtolerance="10"
     guidetolerance="10"
     inkscape:pageopacity="0"
     inkscape:pageshadow="2"
     inkscape:window-width="640"
     inkscape:window-height="480"
     id="namedview12"
     showgrid="false"
     inkscape:zoom="3.9999998"
     inkscape:cx="11.000001"
     inkscape:cy="47.875003"
     inkscape:current-layer="svg10"
     inkscape:document-rotation="0"
     inkscape:pagecheckerboard="0"
     inkscape:document-units="mm" />
  <path
     id="path17435-8"
     style="fill:none;stroke:#00ced1;stroke-width:0.8;stroke-miterlimit:10;paint-order:stroke fill markers"
     d="M 4.990159,3.5925817 A 1.3500005,2.3113456 0 0 0 3.8745836,1.3163507 1.3500005,2.3113456 0 0 0 2.371573,2.802055 M 5.0098409,3.5887036 A 1.3500005,2.3113456 0 0 1 6.1254163,1.3124726 1.3500005,2.3113456 0 0 1 7.628427,2.7981769 M 6.220978,8.5996106 c -0.3496863,0 -1.016521,-0.2494407 -1.016521,-1.0155998 0,-0.6361931 1.1382936,-1.5035681 1.1382936,-2.4947241 0,-1.4059407 -1.0112324,-1.5944408 -1.371177,-1.5944408 -0.5159755,0 -1.3099031,0.4291596 -1.5971579,1.4816151 M 2.0000001,8.6 h 6" />
</svg>
