<?xml version="1.0" encoding="UTF-8" standalone="no"?>
<svg
   width="10mm"
   height="10mm"
   version="1.1"
   viewBox="0 0 10 10"
   id="svg10"
   sodipodi:docname="2644-37.svg"
   inkscape:version="1.1.2 (b8e25be833, 2022-02-05)"
   xmlns:inkscape="http://www.inkscape.org/namespaces/inkscape"
   xmlns:sodipodi="http://sodipodi.sourceforge.net/DTD/sodipodi-0.dtd"
   xmlns="http://www.w3.org/2000/svg"
   xmlns:svg="http://www.w3.org/2000/svg"
   xmlns:rdf="http://www.w3.org/1999/02/22-rdf-syntax-ns#"
   xmlns:cc="http://creativecommons.org/ns#"
   xmlns:dc="http://purl.org/dc/elements/1.1/">
  <metadata
     id="metadata16">
    <rdf:RDF>
      <cc:Work
         rdf:about="">
        <dc:format>image/svg+xml</dc:format>
        <dc:type
           rdf:resource="http://purl.org/dc/dcmitype/StillImage" />
      </cc:Work>
    </rdf:RDF>
  </metadata>
  <defs
     id="defs14" />
  <sodipodi:namedview
     pagecolor="#ffffff"
     bordercolor="#666666"
     borderopacity="1"
     objecttolerance="10"
     gridtolerance="10"
     guidetolerance="10"
     inkscape:pageopacity="0"
     inkscape:pageshadow="2"
     inkscape:window-width="640"
     inkscape:window-height="480"
     id="namedview12"
     showgrid="false"
     inkscape:zoom="31.999998"
     inkscape:cx="20.093751"
     inkscape:cy="13.171876"
     inkscape:current-layer="svg10"
     inkscape:document-rotation="0"
     inkscape:pagecheckerboard="0"
     inkscape:document-units="mm" />
  <path
     style="opacity:0.999;fill:none;stroke:#ff0000;stroke-width:0.799995;stroke-linejoin:round;stroke-miterlimit:10;stroke-dasharray:none;paint-order:stroke fill markers"
     d="M 2,9.3503891 H 8"
     id="path1038-9-4" />
  <path
     d="m 6.2209779,9.3499997 c -0.3496863,0 -1.016521,-0.2494407 -1.016521,-1.0155998 0,-0.6361931 1.1382936,-1.5035681 1.1382936,-2.4947241 0,-1.4059407 -1.0112324,-1.5944408 -1.371177,-1.5944408 -0.5159755,0 -1.3099031,0.4291596 -1.5971579,1.4816151"
     style="opacity:0.999;fill:none;stroke:#191970;stroke-width:0.8;stroke-linejoin:round;stroke-miterlimit:10;stroke-dasharray:none;paint-order:stroke fill markers"
     id="path6"
     sodipodi:nodetypes="csssc" />
  <path
     id="path17435-8"
     style="fill:none;stroke:#00ced1;stroke-width:0.8;stroke-miterlimit:10;paint-order:stroke fill markers"
     transform="scale(-1,1)"
     d="m -7.6284269,3.548566 a 1.3500005,2.3113456 0 0 1 1.5030107,-1.4857043 1.3500005,2.3113456 0 0 1 1.1155754,2.276231 m 2.6382679,-0.7866486 a -1.3500005,2.3113456 0 0 0 -1.5030106,-1.4857043 -1.3500005,2.3113456 0 0 0 -1.1155754,2.276231" />
</svg>
