<?xml version="1.0" encoding="UTF-8" standalone="no"?>
<svg
   width="10mm"
   height="10mm"
   version="1.1"
   viewBox="0 0 10 10"
   id="svg8"
   sodipodi:docname="2644-36.svg"
   inkscape:version="1.1.2 (b8e25be833, 2022-02-05)"
   xmlns:inkscape="http://www.inkscape.org/namespaces/inkscape"
   xmlns:sodipodi="http://sodipodi.sourceforge.net/DTD/sodipodi-0.dtd"
   xmlns="http://www.w3.org/2000/svg"
   xmlns:svg="http://www.w3.org/2000/svg"
   xmlns:rdf="http://www.w3.org/1999/02/22-rdf-syntax-ns#"
   xmlns:cc="http://creativecommons.org/ns#"
   xmlns:dc="http://purl.org/dc/elements/1.1/">
  <metadata
     id="metadata14">
    <rdf:RDF>
      <cc:Work
         rdf:about="">
        <dc:format>image/svg+xml</dc:format>
        <dc:type
           rdf:resource="http://purl.org/dc/dcmitype/StillImage" />
      </cc:Work>
    </rdf:RDF>
  </metadata>
  <defs
     id="defs12" />
  <sodipodi:namedview
     pagecolor="#ffffff"
     bordercolor="#666666"
     borderopacity="1"
     objecttolerance="10"
     gridtolerance="10"
     guidetolerance="10"
     inkscape:pageopacity="0"
     inkscape:pageshadow="2"
     inkscape:window-width="640"
     inkscape:window-height="480"
     id="namedview10"
     showgrid="false"
     inkscape:zoom="13.844562"
     inkscape:cx="4.4060622"
     inkscape:cy="27.628177"
     inkscape:current-layer="svg8"
     inkscape:pagecheckerboard="0"
     inkscape:document-units="mm" />
  <path
     d="M 6.35,2.2499505 A 1.35,1.3499504 0 0 1 4.9999998,3.599901 1.35,1.3499504 0 0 1 3.65,2.2499505 1.35,1.3499504 0 0 1 4.9999998,0.90000001 1.35,1.3499504 0 0 1 6.35,2.2499505 Z"
     style="opacity:0.999;fill:none;stroke:#008000;stroke-width:0.8;stroke-linejoin:round;stroke-miterlimit:10;stroke-dasharray:none;paint-order:stroke fill markers"
     id="path2" />
  <path
     d="M 1,2.2499505 H 9"
     style="opacity:0.999;fill:#008000;stroke:#ff0000;stroke-width:0.8;stroke-linejoin:round;stroke-miterlimit:10;stroke-dasharray:none;paint-order:stroke fill markers"
     id="path4" />
  <path
     d="m 7.716,9.25 c -0.32929,0 -0.95723,-0.23634 -0.95723,-0.96226 0,-0.60278 1.0719,-1.4246 1.0719,-2.3637 0,-1.3321 -0.95225,-1.5107 -1.2912,-1.5107 -0.48588,0 -1.2335,0.40662 -1.504,1.4038 V 3.5559373"
     style="opacity:0.999;fill:none;stroke:#0000ff;stroke-width:0.8;stroke-linejoin:round;stroke-miterlimit:10;stroke-dasharray:none;paint-order:stroke fill markers"
     id="path6"
     sodipodi:nodetypes="cssscc" />
</svg>
