<?xml version="1.0" encoding="UTF-8" standalone="no"?>
<svg
   width="30mm"
   height="30mm"
   version="1.1"
   viewBox="0 0 30 30"
   id="svg12"
   sodipodi:docname="2643-32.svg"
   inkscape:version="1.1.2 (b8e25be833, 2022-02-05)"
   xmlns:inkscape="http://www.inkscape.org/namespaces/inkscape"
   xmlns:sodipodi="http://sodipodi.sourceforge.net/DTD/sodipodi-0.dtd"
   xmlns="http://www.w3.org/2000/svg"
   xmlns:svg="http://www.w3.org/2000/svg">
  <defs
     id="defs16" />
  <sodipodi:namedview
     id="namedview14"
     pagecolor="#ffffff"
     bordercolor="#666666"
     borderopacity="1.0"
     inkscape:pageshadow="2"
     inkscape:pageopacity="0.0"
     inkscape:pagecheckerboard="0"
     inkscape:document-units="mm"
     showgrid="false"
     showguides="false"
     width="30mm"
     inkscape:zoom="4.4085018"
     inkscape:cx="65.781985"
     inkscape:cy="92.208196"
     inkscape:current-layer="svg12" />
  <g
     transform="translate(-136.36449,-177.008)"
     id="g10">
    <path
       d="m 156.89,177.77 v 28.476"
       style="opacity:0.999;fill:none;stroke:#000000;stroke-width:3;stroke-miterlimit:10;paint-order:stroke fill markers"
       id="path2" />
    <path
       d="m 146.62,196.12 a 4.3719,4.3719 0 0 1 -3.7862,-2.186 4.3719,4.3719 0 0 1 0,-4.3719 4.3719,4.3719 0 0 1 3.7862,-2.186"
       style="opacity:0.999;fill:none;stroke:#000000;stroke-width:3;stroke-linecap:round;stroke-miterlimit:10;paint-order:stroke fill markers"
       id="path4" />
    <path
       d="M 161.98,196.12 H 146.572"
       style="opacity:0.999;fill:none;stroke:#000000;stroke-width:3;stroke-miterlimit:10;paint-order:stroke fill markers"
       id="path6" />
    <path
       d="m 146.53,187.39 a 3.7166,3.7166 0 0 1 -3.4337,-2.2943 3.7166,3.7166 0 0 1 0.80567,-4.0504 3.7166,3.7166 0 0 1 4.0503,-0.80566 3.7166,3.7166 0 0 1 2.2943,3.4337"
       style="opacity:0.999;fill:none;stroke:#000000;stroke-width:3;stroke-miterlimit:10;paint-order:stroke fill markers"
       id="path8" />
  </g>
</svg>
