<?xml version="1.0" encoding="UTF-8" standalone="no"?>
<svg
   width="30mm"
   height="30mm"
   version="1.1"
   viewBox="0 0 30 30"
   id="svg12"
   sodipodi:docname="2643-33.svg"
   inkscape:version="1.1.2 (b8e25be833, 2022-02-05)"
   xmlns:inkscape="http://www.inkscape.org/namespaces/inkscape"
   xmlns:sodipodi="http://sodipodi.sourceforge.net/DTD/sodipodi-0.dtd"
   xmlns="http://www.w3.org/2000/svg"
   xmlns:svg="http://www.w3.org/2000/svg">
  <defs
     id="defs16" />
  <sodipodi:namedview
     id="namedview14"
     pagecolor="#ffffff"
     bordercolor="#666666"
     borderopacity="1.0"
     inkscape:pageshadow="2"
     inkscape:pageopacity="0.0"
     inkscape:pagecheckerboard="0"
     inkscape:document-units="mm"
     showgrid="false"
     showguides="false"
     width="30mm"
     inkscape:zoom="8.8170036"
     inkscape:cx="92.208196"
     inkscape:cy="33.968456"
     inkscape:current-layer="svg12" />
  <path
     id="path923"
     style="stroke-width:11.3386;stroke-miterlimit:10;stroke-dasharray:none"
     d="M 65.173828 3.6992188 L 54.449219 7.359375 L 65.695312 40.259766 L 58.263672 60.658203 L 43.324219 19.671875 C 41.332239 14.104697 37.655667 10.070939 32.292969 7.5683594 C 29.330608 6.1893388 26.341502 5.4980469 23.328125 5.4980469 L 23.328125 16.990234 C 24.707065 16.990234 26.060755 17.297276 27.388672 17.910156 C 29.891273 19.084816 31.602145 20.975259 32.521484 23.580078 L 51.597656 75.90625 C 50.473998 77.28519 49.452543 79.021215 48.533203 81.115234 C 45.826343 87.141993 44.472656 92.069892 44.472656 95.900391 C 44.472656 99.730891 45.801193 102.97502 48.457031 105.63086 C 51.16409 108.33772 54.433171 109.69141 58.263672 109.69141 C 62.094369 109.69141 65.336349 108.33772 67.992188 105.63086 C 70.699047 102.97502 72.052734 99.730891 72.052734 95.900391 C 72.052734 92.069892 70.726151 87.141993 68.070312 81.115234 C 67.099873 79.021273 66.078419 77.285248 65.005859 75.90625 L 71.642578 57.660156 L 79.060547 79.363281 L 89.792969 75.693359 L 77.818359 40.677734 L 90.056641 7.03125 L 77.798828 7.03125 L 71.875 23.294922 L 65.173828 3.6992188 z M 58.263672 89.771484 C 58.87657 89.771484 59.413386 90.640434 59.873047 92.376953 C 60.332726 94.113394 60.5625 95.28751 60.5625 95.900391 C 60.5625 96.513289 60.332726 97.050105 59.873047 97.509766 C 59.413386 97.969424 58.87657 98.199219 58.263672 98.199219 C 57.650791 98.199219 57.113978 97.969424 56.654297 97.509766 C 56.194638 97.050105 55.964844 96.513289 55.964844 95.900391 C 55.964844 95.287608 56.194638 94.113492 56.654297 92.376953 C 57.113978 90.640434 57.650791 89.771484 58.263672 89.771484 z "
     transform="scale(0.26458333)" />
</svg>
