<?xml version="1.0" encoding="UTF-8" standalone="no"?>
<svg
   xmlns:dc="http://purl.org/dc/elements/1.1/"
   xmlns:cc="http://creativecommons.org/ns#"
   xmlns:rdf="http://www.w3.org/1999/02/22-rdf-syntax-ns#"
   xmlns:svg="http://www.w3.org/2000/svg"
   xmlns="http://www.w3.org/2000/svg"
   xmlns:sodipodi="http://sodipodi.sourceforge.net/DTD/sodipodi-0.dtd"
   xmlns:inkscape="http://www.inkscape.org/namespaces/inkscape"
   width="10mm"
   height="10mm"
   version="1.1"
   viewBox="0 0 10 10"
   id="svg8"
   sodipodi:docname="moonicon_fontglyph_titan.svg"
   inkscape:version="1.0.2-2 (e86c870879, 2021-01-15)">
  <metadata
     id="metadata14">
    <rdf:RDF>
      <cc:Work
         rdf:about="">
        <dc:format>image/svg+xml</dc:format>
        <dc:type
           rdf:resource="http://purl.org/dc/dcmitype/StillImage" />
        <dc:title></dc:title>
      </cc:Work>
    </rdf:RDF>
  </metadata>
  <defs
     id="defs12" />
  <sodipodi:namedview
     pagecolor="#ffffff"
     bordercolor="#666666"
     borderopacity="1"
     objecttolerance="10"
     gridtolerance="10"
     guidetolerance="10"
     inkscape:pageopacity="0"
     inkscape:pageshadow="2"
     inkscape:window-width="640"
     inkscape:window-height="480"
     id="namedview10"
     showgrid="false"
     inkscape:zoom="9.7895833"
     inkscape:cx="25.428842"
     inkscape:cy="20.631671"
     inkscape:current-layer="svg8" />
  <path
     d="M 6.5446675,2.32 A 1.5446874,1.5446324 0 0 1 4.9999799,3.8646325 1.5446874,1.5446324 0 0 1 3.4552926,2.32 1.5446874,1.5446324 0 0 1 4.9999799,0.77536753 1.5446874,1.5446324 0 0 1 6.5446675,2.32 Z"
     style="opacity:0.999;fill:none;stroke:#008000;stroke-width:0.8;stroke-linejoin:round;stroke-miterlimit:10;stroke-dasharray:none;paint-order:stroke fill markers"
     id="path2" />
  <path
     d="m0.83343 2.32h8.3331"
     style="fill:none;opacity:0.999;paint-order:stroke fill markers;stroke-linejoin:round;stroke-miterlimit:10;stroke:#008000;stroke-width:0.79999998;stroke-dasharray:none"
     id="path4" />
  <path
     d="m7.716 9.25c-0.32929 0-0.95723-0.23634-0.95723-0.96226 0-0.60278 1.0719-1.4246 1.0719-2.3637 0-1.3321-0.95225-1.5107-1.2912-1.5107-0.48588 0-1.2335 0.40662-1.504 1.4038v-3.4803"
     style="fill:none;opacity:0.999;paint-order:stroke fill markers;stroke-linejoin:round;stroke-miterlimit:10;stroke:#008000;stroke-width:0.79999998;stroke-dasharray:none"
     id="path6" />
</svg>
