<?xml version="1.0" encoding="UTF-8" standalone="no"?>
<svg
   width="541.86664mm"
   height="541.86664mm"
   version="1.1"
   viewBox="0 0 2047.9999 2047.9999"
   id="svg6"
   sodipodi:docname="1F728.svg"
   inkscape:version="1.1.2 (b8e25be833, 2022-02-05)"
   xmlns:inkscape="http://www.inkscape.org/namespaces/inkscape"
   xmlns:sodipodi="http://sodipodi.sourceforge.net/DTD/sodipodi-0.dtd"
   xmlns="http://www.w3.org/2000/svg"
   xmlns:svg="http://www.w3.org/2000/svg"
   xmlns:rdf="http://www.w3.org/1999/02/22-rdf-syntax-ns#"
   xmlns:cc="http://creativecommons.org/ns#"
   xmlns:dc="http://purl.org/dc/elements/1.1/">
  <g
     aria-label="☉︎"
     id="text1485"
     style="font-size:2046.67px;line-height:1;font-family:Quivira;-inkscape-font-specification:Quivira;letter-spacing:0px;word-spacing:0px" />
  <metadata
     id="metadata12">
    <rdf:RDF>
      <cc:Work
         rdf:about="">
        <dc:format>image/svg+xml</dc:format>
        <dc:type
           rdf:resource="http://purl.org/dc/dcmitype/StillImage" />
      </cc:Work>
    </rdf:RDF>
  </metadata>
  <defs
     id="defs10" />
  <sodipodi:namedview
     pagecolor="#ffffff"
     bordercolor="#666666"
     borderopacity="1"
     objecttolerance="10"
     gridtolerance="10"
     guidetolerance="10"
     inkscape:pageopacity="0"
     inkscape:pageshadow="2"
     inkscape:window-width="640"
     inkscape:window-height="480"
     id="namedview8"
     showgrid="false"
     inkscape:zoom="0.07648112"
     inkscape:cx="4340.9406"
     inkscape:cy="2229.3084"
     inkscape:current-layer="svg6"
     inkscape:pagecheckerboard="0"
     inkscape:document-units="px"
     units="px"
     scale-x="1"
     showguides="false" />
  <path
     id="path863"
     style="fill:#ff0000;stroke-width:3.02362;stroke-miterlimit:8;paint-order:stroke fill markers"
     d="M 1024 218.92188 C 828.79349 218.92188 671.56248 287.21114 552.30664 423.78906 C 433.71703 560.36698 374.42185 728.59082 374.42188 928.46094 C 374.42187 1128.9973 434.38261 1297.5549 554.30469 1434.1328 C 674.22676 1570.0445 830.79219 1638 1024 1638 C 1217.2077 1638 1373.7732 1570.0445 1493.6953 1434.1328 C 1613.6174 1297.5549 1673.5781 1128.9973 1673.5781 928.46094 C 1673.5781 728.59082 1613.9492 560.36698 1494.6934 423.78906 C 1376.1038 287.21114 1219.2065 218.92186 1024 218.92188 z M 924 330.85156 L 924 878.46094 L 575.95898 878.46094 C 583.84635 748.70379 622.49305 626.76696 692.21484 512.73047 C 751.79173 415.60513 829.05878 354.9911 924 330.85156 z M 1124 331.17773 C 1217.3719 355.53194 1293.9734 416.03481 1353.7852 512.73047 C 1424.6886 626.76695 1463.9904 748.7038 1472.0117 878.46094 L 1124 878.46094 L 1124 331.17773 z M 575.98633 978.46094 L 924 978.46094 L 924 1526.0098 C 829.05866 1501.7456 751.79179 1440.8175 692.21484 1343.1914 C 622.63878 1227.6244 583.98618 1106.03 575.98633 978.46094 z M 1124 978.46094 L 1471.9844 978.46094 C 1463.8487 1106.03 1424.5404 1227.6244 1353.7852 1343.1914 C 1293.9734 1440.3854 1217.3718 1501.1997 1124 1525.6797 L 1124 978.46094 z " />
</svg>
