<?xml version="1.0" encoding="UTF-8" standalone="no"?>
<svg
   width="541.86664mm"
   height="541.86664mm"
   version="1.1"
   viewBox="0 0 2047.9999 2047.9999"
   id="svg6"
   sodipodi:docname="263E.svg"
   inkscape:version="1.1.2 (b8e25be833, 2022-02-05)"
   xmlns:inkscape="http://www.inkscape.org/namespaces/inkscape"
   xmlns:sodipodi="http://sodipodi.sourceforge.net/DTD/sodipodi-0.dtd"
   xmlns="http://www.w3.org/2000/svg"
   xmlns:svg="http://www.w3.org/2000/svg"
   xmlns:rdf="http://www.w3.org/1999/02/22-rdf-syntax-ns#"
   xmlns:cc="http://creativecommons.org/ns#"
   xmlns:dc="http://purl.org/dc/elements/1.1/">
  <g
     aria-label="☉︎"
     id="text1485"
     style="font-size:2046.67px;line-height:1;font-family:Quivira;-inkscape-font-specification:Quivira;letter-spacing:0px;word-spacing:0px">
    <path
       d="m 1024,218.92199 q 292.8097,0 470.6941,204.86688 178.8837,204.86687 178.8837,504.67205 0,300.80458 -179.8831,505.67138 -179.8831,203.8676 -469.6947,203.8676 -289.81172,0 -469.69483,-203.8676 -179.88311,-204.8668 -179.88311,-505.67138 0,-299.80518 177.88441,-504.67205 Q 731.19023,218.92199 1024,218.92199 Z m 0,99.93506 q -212.86173,0 -331.78445,193.87402 -117.92337,192.87467 -117.92337,415.72985 0,218.85778 117.92337,414.73048 118.92272,194.8734 331.78445,194.8734 209.8636,0 329.7857,-194.8734 119.922,-195.8727 119.922,-414.73048 0,-222.85518 -119.922,-415.72985 Q 1233.8636,318.85705 1024,318.85705 Z m 0,309.79869 q 78.9487,0 150.9019,38.97467 71.9532,37.97533 109.9286,109.92857 38.9746,71.95324 38.9746,150.90194 0,78.94868 -38.9746,150.90198 -37.9754,71.9532 -109.9286,110.9279 -71.9532,37.9753 -150.9019,37.9753 -78.94874,0 -150.90199,-37.9753 -71.95324,-38.9747 -110.92792,-110.9279 -37.97532,-71.9533 -37.97532,-150.90198 0,-78.9487 37.97532,-150.90194 Q 801.14477,705.60574 873.09801,667.63041 945.05126,628.65574 1024,628.65574 Z"
       id="path2563" />
  </g>
  <metadata
     id="metadata12">
    <rdf:RDF>
      <cc:Work
         rdf:about="">
        <dc:format>image/svg+xml</dc:format>
        <dc:type
           rdf:resource="http://purl.org/dc/dcmitype/StillImage" />
      </cc:Work>
    </rdf:RDF>
  </metadata>
  <defs
     id="defs10" />
  <sodipodi:namedview
     pagecolor="#ffffff"
     bordercolor="#666666"
     borderopacity="1"
     objecttolerance="10"
     gridtolerance="10"
     guidetolerance="10"
     inkscape:pageopacity="0"
     inkscape:pageshadow="2"
     inkscape:window-width="640"
     inkscape:window-height="480"
     id="namedview8"
     showgrid="false"
     inkscape:zoom="0.30592448"
     inkscape:cx="1467.6825"
     inkscape:cy="825.3671"
     inkscape:current-layer="svg6"
     inkscape:pagecheckerboard="0"
     inkscape:document-units="px"
     units="px"
     scale-x="1"
     showguides="false" />
</svg>
