<?xml version="1.0" encoding="UTF-8" standalone="no"?>
<svg
   width="541.86664mm"
   height="541.86664mm"
   version="1.1"
   viewBox="0 0 2047.9999 2047.9999"
   id="svg6"
   sodipodi:docname="263E.svg"
   inkscape:version="1.1.2 (b8e25be833, 2022-02-05)"
   xmlns:inkscape="http://www.inkscape.org/namespaces/inkscape"
   xmlns:sodipodi="http://sodipodi.sourceforge.net/DTD/sodipodi-0.dtd"
   xmlns="http://www.w3.org/2000/svg"
   xmlns:svg="http://www.w3.org/2000/svg"
   xmlns:rdf="http://www.w3.org/1999/02/22-rdf-syntax-ns#"
   xmlns:cc="http://creativecommons.org/ns#"
   xmlns:dc="http://purl.org/dc/elements/1.1/">
  <g
     aria-label="☾"
     id="text2211"
     style="font-size:2046.67px;line-height:1;font-family:Quivira;-inkscape-font-specification:Quivira;letter-spacing:0px;word-spacing:0px"
     transform="translate(915.22638)">
    <path
       d="m 382.09595,1633.0031 q -41.97272,4.9968 -86.9435,4.9968 -289.8116747,0 -469.69478,-203.8676 -179.88311,-204.8668 -179.88311,-504.67203 0,-300.80453 177.8844,-505.6714 178.8837634,-204.86688 471.69349,-204.86688 43.97143,0 85.94415,4.99675 102.93312,10.99286 190.87597,51.96624 -79.94805,14.99025 -144.90584,64.95779 -64.95779,50.96688 -112.92662,136.91103 -118.92272,209.86363 -118.92272,449.70777 0,237.84543 118.92272,448.70843 48.96818,87.9428 113.92597,138.9097 62.95909,49.9676 142.90714,65.9572 -86.9435,39.974 -188.87727,51.9662 z M 234.19206,322.85445 Q 65.301812,347.83822 -35.6326,511.73172 q -118.92272,193.87402 -118.92272,415.72985 0,219.85713 118.92272,414.73053 100.934412,167.8909 271.82337,191.8753 -31.97922,-29.9805 -60.96039,-64.9578 Q -4.6527308,1250.2518 -4.6527308,929.46027 q 0,-321.79089 178.8837608,-541.64803 27.98181,-34.97727 59.96103,-64.95779 z"
       id="path2797" />
  </g>
  <metadata
     id="metadata12">
    <rdf:RDF>
      <cc:Work
         rdf:about="">
        <dc:format>image/svg+xml</dc:format>
        <dc:type
           rdf:resource="http://purl.org/dc/dcmitype/StillImage" />
      </cc:Work>
    </rdf:RDF>
  </metadata>
  <defs
     id="defs10" />
  <sodipodi:namedview
     pagecolor="#ffffff"
     bordercolor="#666666"
     borderopacity="1"
     objecttolerance="10"
     gridtolerance="10"
     guidetolerance="10"
     inkscape:pageopacity="0"
     inkscape:pageshadow="2"
     inkscape:window-width="640"
     inkscape:window-height="480"
     id="namedview8"
     showgrid="false"
     inkscape:zoom="0.30592448"
     inkscape:cx="1268.2869"
     inkscape:cy="387.3505"
     inkscape:current-layer="svg6"
     inkscape:pagecheckerboard="0"
     inkscape:document-units="px"
     units="px"
     scale-x="1"
     showguides="false" />
</svg>
