<svg height="541.87mm" viewBox="0 0 2048 2048" width="541.87mm" xmlns="http://www.w3.org/2000/svg">
  <g transform="matrix(.70711 -.70711 .70711 .70711 -339.087895 1040.789404)">
    <path d="m 1380.8 476.96 c -117.92 0 -259.16 -23.318 -423.72 -69.955 l 34.977 -35.977 c 282.48 0 518 -46.969 706.54 -140.91 -93.939 188.54 -140.91 424.06 -140.91 706.54 l -35.977 34.977 c -46.636 -164.56 -69.955 -305.8 -69.955 -423.72 -48.483 28.95 -156.73 84.166 -70.954 -70.954 z"/>
  </g>
  <g transform="translate(-192.99 2687.3)">
    <path d="m 1167.5 -1183.7 v -757.51 q -42.972 10.993 -83.945 41.973 -64.958 47.969 -99.935 138.91 -33.978 89.942 -33.978 197.87 0 106.93 33.978 197.87 34.977 90.941 99.935 138.91 40.973 30.98 83.945 41.973 z m 99.935 76.95 v 493.68 h -99.935 v -493.68 q -81.947 -8.9941 -158.9 -53.965 -100.93 -57.962 -154.9 -165.89 -53.965 -108.93 -53.965 -235.85 0 -126.92 53.965 -234.85 53.965 -108.93 154.9 -166.89 76.95 -44.971 158.9 -54.964 v -492.68 h 99.935 v 492.68 q 81.947 10.993 158.9 54.964 99.935 57.962 153.9 166.89 53.965 107.93 53.965 234.85 0 126.92 -53.965 235.85 -53.965 107.93 -153.9 165.89 -76.95 43.971 -158.9 53.965 z m 0 -833.46 v 755.51 q 42.972 -10.993 83.945 -40.973 63.958 -47.969 97.936 -138.91 34.977 -90.941 34.977 -197.87 0 -107.93 -34.977 -197.87 -33.978 -90.941 -97.936 -138.91 -40.973 -29.98 -83.945 -40.973 z"/>
  </g>
</svg>
