<?xml version="1.0" encoding="UTF-8" standalone="no"?>
<svg
   width="541.86664mm"
   height="541.86664mm"
   version="1.1"
   viewBox="0 0 2047.9999 2047.9999"
   id="svg6"
   sodipodi:docname="2642-32.svg"
   inkscape:version="1.1.2 (b8e25be833, 2022-02-05)"
   xmlns:inkscape="http://www.inkscape.org/namespaces/inkscape"
   xmlns:sodipodi="http://sodipodi.sourceforge.net/DTD/sodipodi-0.dtd"
   xmlns="http://www.w3.org/2000/svg"
   xmlns:svg="http://www.w3.org/2000/svg"
   xmlns:rdf="http://www.w3.org/1999/02/22-rdf-syntax-ns#"
   xmlns:cc="http://creativecommons.org/ns#"
   xmlns:dc="http://purl.org/dc/elements/1.1/">
  <metadata
     id="metadata12">
    <rdf:RDF>
      <cc:Work
         rdf:about="">
        <dc:format>image/svg+xml</dc:format>
        <dc:type
           rdf:resource="http://purl.org/dc/dcmitype/StillImage" />
      </cc:Work>
    </rdf:RDF>
  </metadata>
  <defs
     id="defs10" />
  <sodipodi:namedview
     pagecolor="#ffffff"
     bordercolor="#666666"
     borderopacity="1"
     objecttolerance="10"
     gridtolerance="10"
     guidetolerance="10"
     inkscape:pageopacity="0"
     inkscape:pageshadow="2"
     inkscape:window-width="640"
     inkscape:window-height="480"
     id="namedview8"
     showgrid="false"
     inkscape:zoom="0.10816064"
     inkscape:cx="822.8502"
     inkscape:cy="531.6167"
     inkscape:current-layer="svg6"
     inkscape:pagecheckerboard="0"
     inkscape:document-units="px"
     units="px"
     scale-x="1" />
  <g
     aria-label="δ"
     id="text7799"
     style="font-size:2046.67px;line-height:1;font-family:Quivira;-inkscape-font-specification:Quivira;letter-spacing:0px;word-spacing:0px">
    <path
       d="m 889.58728,842.72189 c -42.63896,31.97922 -75.61753,78.28246 -98.93571,138.90973 -22.65195,59.96108 -33.97792,125.91818 -33.97792,197.87138 0,71.2871 11.32597,137.2442 33.97792,197.8715 23.31818,60.6273 56.29675,106.9305 98.93571,138.9097 43.30519,31.9792 87.94287,47.9688 133.91302,47.9688 46.6363,0 91.274,-15.9896 133.9129,-47.9688 43.3052,-31.9792 76.2838,-78.2824 98.9358,-138.9097 23.3181,-60.6273 34.9772,-126.5844 34.9772,-197.8715 0,-71.9532 -8.661,-125.9181 -25.9831,-161.8948 -16.6559,-35.97659 -53.965,-82.94606 -111.9273,-140.90839 -55.2974,-54.63117 -96.937,-81.94675 -124.9188,-81.94675 h -4.9967 c -45.97015,0 -90.60783,15.98961 -133.91302,47.96883 z m 378.75392,-41.97273 c 49.9675,36.64286 89.6084,84.27857 118.9227,142.90714 35.9766,72.6195 53.9649,151.235 53.9649,235.8467 0,84.6117 -17.9883,163.2273 -53.9649,235.8468 -35.9767,71.9533 -87.6098,127.2507 -154.8994,165.8922 -66.6233,38.6415 -136.2447,57.9623 -208.8642,57.9623 -71.95327,0 -141.57471,-19.3208 -208.86432,-57.9623 -66.62337,-38.6415 -117.92337,-93.9389 -153.89999,-165.8922 -35.97662,-72.6195 -53.96493,-151.2351 -53.96493,-235.8468 0,-84.6117 17.98831,-162.8941 53.96493,-234.84735 35.97662,-72.61948 87.60974,-128.25 154.89935,-166.89155 56.62987,-32.64545 114.92532,-51.63312 174.88635,-56.96299 -31.31299,-30.64675 -55.2974,-53.29869 -71.95324,-67.95584 -65.29091,-57.2961 -109.26233,-102.26688 -131.91428,-134.91233 -22.65195,-33.31169 -33.97792,-69.62143 -33.97792,-108.92922 0,-58.62857 27.31558,-104.59869 81.94675,-137.91038 54.63117,-33.97792 101.64871,-38.25431 189.5915,-38.25431 87.9429,0 179.5838,36.94834 244.8747,66.92886 65.9571,29.98052 108.1812,36.61635 108.1812,89.24882 -33.8436,141.8303 -87.6151,43.86456 -137.4241,-5.90071 -39.4752,-40.09879 -80.109,-64.21679 -125.0251,-81.13781 -31.5372,-10.65311 -94.6521,-20.89134 -133.29366,-20.89134 -49.3013,0 -89.94156,10.99286 -121.92078,32.97857 -31.31299,21.98571 -46.96948,49.96753 -46.96948,83.94545 0,31.97922 12.99156,61.95974 38.97468,89.94155 25.98311,27.98182 92.93959,78.9487 200.86944,152.90064 94.6052,64.62467 166.5585,117.92337 215.8598,159.8961 z"
       id="path7086"
       sodipodi:nodetypes="ccsccsccsccsscccsccsccscccccscsccccscsscc" />
  </g>
  <g
     aria-label="♂"
     id="text7799-6"
     style="font-size:2046.67px;line-height:1;font-family:Quivira;-inkscape-font-specification:Quivira;letter-spacing:0px;word-spacing:0px;stroke-width:1.55945"
     transform="matrix(0.16596829,0.61940209,-0.61940209,0.16596829,1374.0213,-589.58583)">
    <path
       d="m 1380.7681,476.95957 c -117.9233,0 -259.1649,-23.31818 -423.72464,-69.95455 l 34.97728,-35.97662 c 282.48306,0 517.99676,-46.96948 706.54086,-140.90843 -93.9389,188.54415 -140.9084,424.05777 -140.9084,706.54087 l -35.9766,34.97728 c -46.6364,-164.55973 -69.9546,-305.80129 -69.9546,-423.72466 -48.483,28.94977 -156.7323,84.16588 -70.9539,-70.95389 z"
       id="path10850"
       sodipodi:nodetypes="cccccccc"
       style="stroke-width:1.55945" />
  </g>
</svg>
