<?xml version="1.0" encoding="UTF-8" standalone="no"?>
<svg
   width="541.86664mm"
   height="541.86664mm"
   version="1.1"
   viewBox="0 0 2047.9999 2047.9999"
   id="svg6"
   sodipodi:docname="2643-34.svg"
   inkscape:version="1.1.2 (b8e25be833, 2022-02-05)"
   xmlns:inkscape="http://www.inkscape.org/namespaces/inkscape"
   xmlns:sodipodi="http://sodipodi.sourceforge.net/DTD/sodipodi-0.dtd"
   xmlns="http://www.w3.org/2000/svg"
   xmlns:svg="http://www.w3.org/2000/svg"
   xmlns:rdf="http://www.w3.org/1999/02/22-rdf-syntax-ns#"
   xmlns:cc="http://creativecommons.org/ns#"
   xmlns:dc="http://purl.org/dc/elements/1.1/">
  <metadata
     id="metadata12">
    <rdf:RDF>
      <cc:Work
         rdf:about="">
        <dc:format>image/svg+xml</dc:format>
        <dc:type
           rdf:resource="http://purl.org/dc/dcmitype/StillImage" />
      </cc:Work>
    </rdf:RDF>
  </metadata>
  <defs
     id="defs10" />
  <sodipodi:namedview
     pagecolor="#ffffff"
     bordercolor="#666666"
     borderopacity="1"
     objecttolerance="10"
     gridtolerance="10"
     guidetolerance="10"
     inkscape:pageopacity="0"
     inkscape:pageshadow="2"
     inkscape:window-width="640"
     inkscape:window-height="480"
     id="namedview8"
     showgrid="false"
     inkscape:zoom="0.30592448"
     inkscape:cx="1108.1166"
     inkscape:cy="799.21685"
     inkscape:current-layer="svg6"
     inkscape:pagecheckerboard="0"
     inkscape:document-units="px"
     units="px"
     scale-x="1"
     showguides="false" />
  <path
     id="rect3360"
     style="fill:#ff0000;stroke-width:99.9991;stroke-linecap:square;stroke-miterlimit:10;paint-order:stroke fill markers"
     d="m 1065.6984,1059.6556 h 600.8371 v 100 h -600.8371 z" />
  <path
     id="rect5638"
     style="fill:#696969;stroke-width:100;stroke-linecap:square;stroke-miterlimit:10;paint-order:stroke fill markers"
     d="m 1495.8607,604.3439 v 1035 h -100 v -1035 z" />
  <g
     aria-label="ϰ"
     id="text6102"
     style="font-size:2046.67px;line-height:1;font-family:Quivira;-inkscape-font-specification:Quivira;letter-spacing:0px;word-spacing:0px"
     transform="translate(189.8563,-26.82878)">
    <path
       d="m 1096.4285,366.0175 c 0,115.92467 -54.9643,205.53311 -164.89284,268.82532 l -79.94805,296.80713 c -6.66233,24.65065 -9.9935,45.63701 -9.9935,62.95908 0,19.32077 3.9974,34.64417 11.9922,45.97017 14.65715,21.9857 57.53415,42.3867 65.95714,44.9707 18.24896,4.8898 79.95023,26.4008 89.94375,26.4008 13.3247,0 6.6861,14.5986 22.0095,10.6012 26.6493,-6.6623 79.0161,32.42 97.0044,9.7681 l 37.9753,9.9935 c -39.3078,57.2961 -152.3278,2.8643 -198.96412,24.1838 -30.64675,13.3247 -60.62727,19.9871 -89.94155,19.9871 -15.32338,0 -30.64676,-1.6656 -45.97013,-4.9968 -29.31429,-7.9948 -52.96558,-22.9851 -70.95389,-44.9708 -17.32208,-21.9857 -26.98247,-49.9675 -28.98117,-83.9454 v -9.9935 c 0,-33.3117 7.66169,-78.2825 22.98506,-134.91237 L 808.61554,705.79671 500.89348,952.63631 C 458.92075,1108.535 404.6227,1186.4844 337.99933,1186.4844 c -47.3026,0 -70.9539,-45.3039 -70.9539,-135.9117 0,-90.60781 55.2974,-167.89093 165.8922,-231.84937 l 78.9487,-295.80778 c 6.66234,-24.65065 9.99351,-45.63701 9.99351,-62.95909 0,-19.32078 -3.66429,-34.64416 -10.99286,-45.97013 -15.32337,-21.98571 -37.6422,-36.97597 -66.95649,-44.97078 -9.32727,-1.9987 -18.98766,-2.99805 -28.98117,-2.99805 -13.32467,0 -27.6487,1.66559 -42.97207,4.99676 -26.64935,7.32857 -48.96818,22.31882 -66.95649,44.97077 l -37.97533,-9.9935 c 39.30779,-57.29611 82.27987,-96.93702 128.91623,-118.92273 29.98052,-13.32467 59.29481,-19.98701 87.94286,-19.98701 15.98961,0 31.97922,1.9987 47.96883,5.99611 29.31428,7.9948 52.63246,22.98506 69.95454,44.97077 17.98831,21.98571 27.98181,49.63441 29.98052,82.9461 v 10.99286 c 0,33.31169 -7.66169,78.28246 -22.98507,134.91233 l -53.96493,200.86947 308.72141,-246.8396 c 41.30649,-155.89869 95.27142,-233.84804 161.89478,-233.84804 47.3026,0 70.9539,32.97857 70.9539,98.93571 z"
       id="path7612"
       sodipodi:nodetypes="sccsccsccccscccscccssccsccsccccscccscccss" />
  </g>
  <g
     aria-label="ϰ"
     id="text6102-1"
     style="font-size:2046.67px;line-height:1;font-family:Quivira;-inkscape-font-specification:Quivira;letter-spacing:0px;word-spacing:0px"
     transform="rotate(90,1329.712,2020.4839)" />
</svg>
