<?xml version="1.0" encoding="UTF-8" standalone="no"?>
<svg
   width="2047.9999"
   height="2047.9999"
   version="1.1"
   viewBox="0 0 2047.9999 2047.9999"
   id="svg6"
   sodipodi:docname="2644-38.svg"
   inkscape:version="1.1.2 (b8e25be833, 2022-02-05)"
   xmlns:inkscape="http://www.inkscape.org/namespaces/inkscape"
   xmlns:sodipodi="http://sodipodi.sourceforge.net/DTD/sodipodi-0.dtd"
   xmlns="http://www.w3.org/2000/svg"
   xmlns:svg="http://www.w3.org/2000/svg"
   xmlns:rdf="http://www.w3.org/1999/02/22-rdf-syntax-ns#"
   xmlns:cc="http://creativecommons.org/ns#"
   xmlns:dc="http://purl.org/dc/elements/1.1/">
  <metadata
     id="metadata12">
    <rdf:RDF>
      <cc:Work
         rdf:about="">
        <dc:format>image/svg+xml</dc:format>
        <dc:type
           rdf:resource="http://purl.org/dc/dcmitype/StillImage" />
      </cc:Work>
    </rdf:RDF>
  </metadata>
  <defs
     id="defs10">
    <inkscape:path-effect
       effect="fill_between_many"
       method="originald"
       linkedpaths="#path41269-3,0,1|"
       id="path-effect918" />
  </defs>
  <sodipodi:namedview
     pagecolor="#ffffff"
     bordercolor="#666666"
     borderopacity="1"
     objecttolerance="10"
     gridtolerance="10"
     guidetolerance="10"
     inkscape:pageopacity="0"
     inkscape:pageshadow="2"
     inkscape:window-width="640"
     inkscape:window-height="480"
     id="namedview8"
     showgrid="false"
     inkscape:zoom="0.30592448"
     inkscape:cx="1797.8293"
     inkscape:cy="1541.23"
     inkscape:current-layer="svg6"
     inkscape:pagecheckerboard="0"
     inkscape:document-units="px"
     units="px"
     scale-x="1"
     showguides="false" />
  <g
     aria-label="♄"
     id="text3786-2"
     style="font-size:541.514px;line-height:1;font-family:'CMU Sans Serif';-inkscape-font-specification:'CMU Sans Serif';letter-spacing:0px;word-spacing:0px;stroke-width:0.264583;fill:#006400"
     transform="matrix(3.7795276,0,0,3.7795276,-70.44762,-143.44542)" />
  <path
     inkscape:original-d="M 0,0"
     inkscape:path-effect="#path-effect918"
     d="M 924.06485,1948.0648 H 624.25966 c -66.62337,0 -136.57791,-83.2792 -209.86362,-249.8376 h -39.97403 l 99.93506,349.7727 H 1573.6428 l 99.9351,-349.7727 h -39.974 c -73.2858,166.5584 -143.2403,249.8376 -209.8637,249.8376 H 1123.935 c -89.7986,0 -130.80087,0 -199.87015,0 z"
     id="path920" />
  <path
     id="path41269-3"
     style="font-size:2046.67px;line-height:1;font-family:Quivira;-inkscape-font-specification:Quivira;letter-spacing:0px;word-spacing:0px;fill:#e9967a"
     d="M 924.06485,1948.0648 H 624.25966 c -66.62337,0 -136.57791,-83.2792 -209.86362,-249.8376 h -39.97403 l 99.93506,349.7727 H 1573.6428 l 99.9351,-349.7727 h -39.974 c -73.2858,166.5584 -143.2403,249.8376 -209.8637,249.8376 H 1123.935 c -89.7986,0 -130.80087,0 -199.87015,0 z M 748.68581,807.4993 c 79.28171,-139.90889 179.21662,-209.86334 299.80479,-209.86334 122.5868,0 219.8568,47.63566 291.8099,142.90693 71.9531,95.27127 107.9297,204.53344 107.9297,327.78651 0,92.6064 -33.3116,192.2081 -99.9349,298.8054 -66.6233,105.931 -99.9349,199.2036 -99.9349,279.8178 0,179.8828 60.6271,279.8177 181.8815,299.8047 31.313,0 67.2895,-9.9935 107.9297,-29.9805 l 19.987,29.9805 c -51.2999,33.3116 -103.9323,49.9674 -157.8971,49.9674 -98.6025,0 -181.8816,-36.3096 -249.8373,-108.929 -67.9558,-72.6194 -101.9336,-152.9004 -101.9336,-240.8431 0,-70.6207 33.3116,-163.5602 99.9349,-278.8184 66.6232,-115.9245 99.9349,-215.8595 99.9349,-299.8048 0,-95.93752 -20.9863,-181.54843 -62.959,-256.83272 -41.3064,-75.95056 -101.6005,-113.92581 -180.8822,-113.92581 -103.26607,0 -188.54386,74.61808 -255.83339,223.8542 -12.11479,30.28701 -90.22183,84.83013 -73.96404,40.60565 23.76159,-49.46985 44.05493,-93.13825 73.96404,-154.53142 z" />
  <path
     d="M 924.06485,337.93486 H 624.25966 c -66.62337,0 -136.57791,83.2792 -209.86362,249.8376 h -39.97403 l 99.93506,-349.7727 H 1573.6428 l 99.9351,349.7727 h -39.974 c -73.2858,-166.5584 -143.2403,-249.8376 -209.8637,-249.8376 H 1123.935 c -89.7986,0 -130.80087,0 -199.87015,0 z"
     id="path41269-3-3"
     sodipodi:nodetypes="csccccccscc"
     style="font-size:2046.67px;line-height:1;font-family:Quivira;-inkscape-font-specification:Quivira;letter-spacing:0px;word-spacing:0px" />
  <path
     id="rect41977"
     style="fill:#ff0000;stroke-width:50;stroke-linecap:square;stroke-miterlimit:10;paint-order:stroke fill markers"
     d="m 674.7218,305.00586 h 84.9883 l 0,551.85725 -84.9883,105.16765 z"
     sodipodi:nodetypes="ccccc" />
</svg>
