<?xml version="1.0" encoding="UTF-8" standalone="no"?>
<svg
   width="2047.9999"
   height="2047.9999"
   version="1.1"
   viewBox="0 0 2047.9999 2047.9999"
   id="svg6"
   sodipodi:docname="2644-36.svg"
   inkscape:version="1.1.2 (b8e25be833, 2022-02-05)"
   xmlns:inkscape="http://www.inkscape.org/namespaces/inkscape"
   xmlns:sodipodi="http://sodipodi.sourceforge.net/DTD/sodipodi-0.dtd"
   xmlns="http://www.w3.org/2000/svg"
   xmlns:svg="http://www.w3.org/2000/svg"
   xmlns:rdf="http://www.w3.org/1999/02/22-rdf-syntax-ns#"
   xmlns:cc="http://creativecommons.org/ns#"
   xmlns:dc="http://purl.org/dc/elements/1.1/">
  <metadata
     id="metadata12">
    <rdf:RDF>
      <cc:Work
         rdf:about="">
        <dc:format>image/svg+xml</dc:format>
        <dc:type
           rdf:resource="http://purl.org/dc/dcmitype/StillImage" />
      </cc:Work>
    </rdf:RDF>
  </metadata>
  <defs
     id="defs10" />
  <sodipodi:namedview
     pagecolor="#ffffff"
     bordercolor="#666666"
     borderopacity="1"
     objecttolerance="10"
     gridtolerance="10"
     guidetolerance="10"
     inkscape:pageopacity="0"
     inkscape:pageshadow="2"
     inkscape:window-width="640"
     inkscape:window-height="480"
     id="namedview8"
     showgrid="false"
     inkscape:zoom="0.30592448"
     inkscape:cx="1212.7176"
     inkscape:cy="625.97148"
     inkscape:current-layer="svg6"
     inkscape:pagecheckerboard="0"
     inkscape:document-units="px"
     units="px"
     scale-x="1" />
  <g
     aria-label="I"
     transform="matrix(0,0.62107898,-1,0,-3.2636718e-5,139.05266)"
     id="text6952"
     style="font-size:2046.67px;line-height:1;font-family:Quivira;-inkscape-font-specification:Quivira;letter-spacing:0px;word-spacing:0px;stroke-width:1.2689" />
  <path
     id="path4633-0"
     style="font-size:541.514px;line-height:1;font-family:Quivira;-inkscape-font-specification:Quivira;letter-spacing:0px;word-spacing:0px;stroke-width:0.999999"
     d="M 1024.2227 116.61133 C 884.8333 116.61133 767.25966 212.89612 733.9375 342.20703 L 523.10352 342.20703 C 470.47105 342.20703 427.49919 352.20049 394.1875 372.1875 C 360.87581 392.17451 332.56232 420.48996 309.24414 457.13281 C 285.92596 493.77566 264.27217 555.40133 244.28516 642.01172 L 280.26172 642.01172 C 306.24483 575.38835 336.55897 533.74959 371.20312 517.09375 C 406.51351 500.4379 446.82111 492.10938 492.125 492.10938 L 594.05859 492.10938 L 734.16211 492.10938 C 764.50782 608.03219 862.71482 696.94788 983.46875 713.54688 L 983.46875 972.15625 C 959.40063 1021.9646 940.96708 1061.3317 920.27734 1104.4062 C 904.01955 1148.6309 982.12741 1094.0878 994.24219 1063.8008 C 1061.5317 914.56464 1146.8101 839.94531 1250.0762 839.94531 C 1329.3579 839.94531 1389.6506 877.92054 1430.957 953.87109 C 1472.9296 1029.1554 1493.916 1114.7676 1493.916 1210.7051 C 1493.916 1294.6504 1460.6056 1394.5853 1393.9824 1510.5098 C 1327.3591 1625.768 1294.0469 1718.7075 1294.0469 1789.3281 C 1294.0469 1877.2709 1328.0248 1957.5525 1395.9805 2030.1719 C 1463.9363 2102.7912 1547.2159 2139.0996 1645.8184 2139.0996 C 1699.7833 2139.0996 1752.4149 2122.4444 1803.7148 2089.1328 L 1783.7285 2059.1523 C 1743.0883 2079.1394 1707.1117 2089.1328 1675.7988 2089.1328 C 1554.5444 2069.1458 1493.916 1969.211 1493.916 1789.3281 C 1493.916 1708.7139 1527.2283 1615.4408 1593.8516 1509.5098 C 1660.4749 1402.9125 1693.7871 1303.3114 1693.7871 1210.7051 C 1693.7871 1087.452 1657.8105 978.18924 1585.8574 882.91797 C 1513.9042 787.6467 1416.6337 740.01172 1294.0469 740.01172 C 1214.9733 740.01172 1144.7811 770.09512 1083.4688 830.25391 L 1083.4688 710.48242 C 1195.6982 687.76714 1285.5316 602.06759 1314.3105 492.10938 L 1733.7598 492.10938 L 1803.7148 342.20703 L 1314.5059 342.20703 C 1281.1834 212.89624 1163.6119 116.61133 1024.2227 116.61133 z M 1024.2227 196.61133 C 1109.8644 196.61133 1169.9899 261.61866 1193.2363 342.20703 L 855.20898 342.20703 C 878.45553 261.61876 938.58103 196.61133 1024.2227 196.61133 z M 855.54102 492.10938 L 1192.9043 492.10938 C 1169.4254 572.18663 1109.4744 636.61133 1024.2227 636.61133 C 938.97107 636.61133 879.01999 572.18652 855.54102 492.10938 z " />
  <g
     aria-label="τ"
     id="text1640"
     style="font-size:2046.67px;line-height:1;font-family:Quivira;-inkscape-font-specification:Quivira;letter-spacing:0px;word-spacing:0px;fill:#ffa500"
     transform="translate(-44.595776)" />
</svg>
