<?xml version="1.0" encoding="UTF-8" standalone="no"?>
<svg
   width="2047.9999"
   height="2047.9999"
   version="1.1"
   viewBox="0 0 2047.9999 2047.9999"
   id="svg6"
   sodipodi:docname="2644-34.svg"
   inkscape:version="1.1.2 (b8e25be833, 2022-02-05)"
   xmlns:inkscape="http://www.inkscape.org/namespaces/inkscape"
   xmlns:sodipodi="http://sodipodi.sourceforge.net/DTD/sodipodi-0.dtd"
   xmlns="http://www.w3.org/2000/svg"
   xmlns:svg="http://www.w3.org/2000/svg"
   xmlns:rdf="http://www.w3.org/1999/02/22-rdf-syntax-ns#"
   xmlns:cc="http://creativecommons.org/ns#"
   xmlns:dc="http://purl.org/dc/elements/1.1/">
  <metadata
     id="metadata12">
    <rdf:RDF>
      <cc:Work
         rdf:about="">
        <dc:format>image/svg+xml</dc:format>
        <dc:type
           rdf:resource="http://purl.org/dc/dcmitype/StillImage" />
      </cc:Work>
    </rdf:RDF>
  </metadata>
  <defs
     id="defs10" />
  <sodipodi:namedview
     pagecolor="#ffffff"
     bordercolor="#666666"
     borderopacity="1"
     objecttolerance="10"
     gridtolerance="10"
     guidetolerance="10"
     inkscape:pageopacity="0"
     inkscape:pageshadow="2"
     inkscape:window-width="640"
     inkscape:window-height="480"
     id="namedview8"
     showgrid="false"
     inkscape:zoom="0.15296224"
     inkscape:cx="1385.963"
     inkscape:cy="1042.741"
     inkscape:current-layer="svg6"
     inkscape:pagecheckerboard="0"
     inkscape:document-units="px"
     units="px"
     scale-x="1" />
  <path
     id="rect7177"
     style="fill:#000000;stroke-width:50;stroke-linecap:square;stroke-miterlimit:10;paint-order:stroke fill markers"
     d="M 947.89648,105.83984 150.20703,1108.1172 h 501.08789 c -0.667,-5.4281 -1.08014,-10.8813 -1.23828,-16.3438 0.0686,-18.5016 3.08956,-36.8821 8.9082,-54.5468 65.2359,-131.50871 146.31897,-197.28129 243.25782,-197.28129 79.28168,0 139.57444,37.97522 180.88084,113.92578 41.9727,75.28431 62.959,160.89641 62.959,256.83401 0,83.9453 -33.3103,183.8802 -99.9336,299.8047 -66.62326,115.2583 -99.93554,208.1976 -99.93554,278.8183 0,87.9427 33.97788,168.2245 101.93364,240.8438 67.9558,72.6194 151.2354,108.9277 249.8378,108.9277 53.9649,0 106.5966,-16.6552 157.8965,-49.9668 l -19.9863,-29.9805 c -40.6402,19.987 -76.6168,29.9805 -107.9297,29.9805 -121.2544,-19.987 -181.8828,-119.9219 -181.8828,-299.8047 0,-80.6142 33.3122,-173.8873 99.9355,-279.8183 66.6232,-106.5972 99.9356,-206.1984 99.9356,-298.8047 0,-35.3607 -3.064,-69.5303 -8.9863,-102.5879 H 1897.793 L 1100.1055,105.83984 Z m 20,151.14844 609.10552,779.53712 h -257.9883 c -17.9883,-54.70825 -44.9882,-105.91217 -81.0098,-153.60743 -71.9532,-95.27127 -169.2238,-142.90625 -291.81054,-142.90625 -120.58813,0 -220.52298,69.95439 -299.80469,209.86328 -21.39387,41.83679 -33.10063,68.6573 -39.14648,86.6504 H 338.79102 Z M 750.67969,980.63477 v 0.58203 c 0.1533,-0.19429 0.30684,-0.3883 0.46093,-0.58203 z"
     sodipodi:nodetypes="cccccscscssscccscscccccccsscccccccc" />
  <g
     aria-label="♄"
     id="text3786-2"
     style="font-size:541.514px;line-height:1;font-family:'CMU Sans Serif';-inkscape-font-specification:'CMU Sans Serif';letter-spacing:0px;word-spacing:0px;stroke-width:0.264583"
     transform="matrix(3.7795276,0,0,3.7795276,-172.74487,-1.0700696)" />
  <g
     aria-label="Δ"
     transform="matrix(1.4030685,0,0,0.71272358,-347.63091,0)"
     id="text3258"
     style="font-size:2057.16px;line-height:1;font-family:Quivira;-inkscape-font-specification:Quivira;letter-spacing:0px;word-spacing:0px;stroke-width:0.999998" />
</svg>
