<?xml version="1.0" encoding="UTF-8" standalone="no"?>
<svg
   width="2047.9999"
   height="2047.9999"
   version="1.1"
   viewBox="0 0 2047.9999 2047.9999"
   id="svg6"
   sodipodi:docname="2644-33.svg"
   inkscape:version="1.1.2 (b8e25be833, 2022-02-05)"
   xmlns:inkscape="http://www.inkscape.org/namespaces/inkscape"
   xmlns:sodipodi="http://sodipodi.sourceforge.net/DTD/sodipodi-0.dtd"
   xmlns="http://www.w3.org/2000/svg"
   xmlns:svg="http://www.w3.org/2000/svg"
   xmlns:rdf="http://www.w3.org/1999/02/22-rdf-syntax-ns#"
   xmlns:cc="http://creativecommons.org/ns#"
   xmlns:dc="http://purl.org/dc/elements/1.1/">
  <metadata
     id="metadata12">
    <rdf:RDF>
      <cc:Work
         rdf:about="">
        <dc:format>image/svg+xml</dc:format>
        <dc:type
           rdf:resource="http://purl.org/dc/dcmitype/StillImage" />
      </cc:Work>
    </rdf:RDF>
  </metadata>
  <defs
     id="defs10" />
  <sodipodi:namedview
     pagecolor="#ffffff"
     bordercolor="#666666"
     borderopacity="1"
     objecttolerance="10"
     gridtolerance="10"
     guidetolerance="10"
     inkscape:pageopacity="0"
     inkscape:pageshadow="2"
     inkscape:window-width="640"
     inkscape:window-height="480"
     id="namedview8"
     showgrid="false"
     inkscape:zoom="0.30592448"
     inkscape:cx="1108.1166"
     inkscape:cy="1250.3086"
     inkscape:current-layer="svg6"
     inkscape:pagecheckerboard="0"
     inkscape:document-units="px"
     units="px"
     scale-x="1" />
  <g
     id="g835"
     transform="matrix(3.7795276,0,0,3.7795276,-6.7439298e-5,-1.0700696)">
    <g
       aria-label="T"
       id="text1947"
       style="font-size:541.514px;line-height:1;font-family:'CMU Sans Serif';-inkscape-font-specification:'CMU Sans Serif';letter-spacing:0px;word-spacing:0px;fill:#ff0000;stroke-width:0.264583"
       transform="translate(176.01265,242.04779)">
      <path
         d="m 86.988355,139.11778 q 0,13.22055 10.576445,27.76316 10.57644,14.54262 29.08522,14.54262 h 13.22056 V 192 H -18.776094 v -10.57644 h 13.2205561 q 18.5087789,0 29.0852229,-14.54262 10.576445,-14.54261 10.576445,-27.76316 v -290.85224 h -79.323336 q -26.441112,0 -55.526334,66.102782 h -10.57645 l 26.441116,-92.543892 H 205.97336 l 26.44111,92.543892 H 221.83803 Q 192.7528,-151.73446 166.31169,-151.73446 H 86.988355 Z"
         style="font-family:Quivira;-inkscape-font-specification:Quivira;fill:#ff0000"
         id="path4654" />
    </g>
    <g
       aria-label="♄"
       id="text3786-2"
       style="font-size:541.514px;line-height:1;font-family:'CMU Sans Serif';-inkscape-font-specification:'CMU Sans Serif';letter-spacing:0px;word-spacing:0px;stroke-width:0.264583"
       transform="translate(46.271948)">
      <path
         d="m 216.72905,156.41611 v 95.18801 c 20.97662,-37.01756 47.41773,-55.52634 79.32334,-55.52634 32.43443,0 58.17045,12.6036 77.20805,37.81079 19.0376,25.20719 28.5564,54.11614 28.5564,86.72685 0,24.5021 -8.8137,50.85507 -26.44111,79.05892 -17.62741,28.02758 -26.44112,52.70595 -26.44112,74.03512 0,47.594 16.04094,74.03511 48.12283,79.32334 8.28488,0 17.80368,-2.64411 28.5564,-7.93234 l 5.28822,7.93234 c -13.5731,8.8137 -27.49875,13.22055 -41.77695,13.22055 -26.08857,0 -48.12283,-9.60694 -66.10279,-28.82081 -17.97995,-19.21387 -26.96993,-40.4549 -26.96993,-63.72308 0,-18.68505 8.8137,-43.27529 26.44111,-73.7707 17.62741,-30.67169 26.44111,-57.11281 26.44111,-79.32334 0,-25.38347 -5.55263,-48.03469 -16.6579,-67.95366 -10.92899,-20.09525 -26.8818,-30.14287 -47.85841,-30.14287 -27.32248,0 -49.88556,19.7427 -67.68925,59.22809 v 99.41859 c 0,8.8137 3.52548,18.06809 10.57645,27.76316 7.05096,9.69508 16.74603,14.54262 29.08522,14.54262 h 13.22056 v 10.57644 H 110.96461 v -10.57644 h 13.22055 c 12.33919,0 22.03426,-4.84754 29.08522,-14.54262 7.05097,-9.69507 10.57645,-18.94946 10.57645,-27.76316 V 156.41611 c 14.6638,-7.83912 29.71119,-32 52.88222,0 z"
         style="font-family:Quivira;-inkscape-font-specification:Quivira"
         id="path4633"
         sodipodi:nodetypes="ccssscscccssscscscsssccccssscc" />
    </g>
  </g>
</svg>
