<?xml version="1.0" encoding="UTF-8" standalone="no"?>
<svg
   width="2047.9999"
   height="2047.9999"
   version="1.1"
   viewBox="0 0 2047.9999 2047.9999"
   id="svg6"
   sodipodi:docname="2644-35.svg"
   inkscape:version="1.1.2 (b8e25be833, 2022-02-05)"
   xmlns:inkscape="http://www.inkscape.org/namespaces/inkscape"
   xmlns:sodipodi="http://sodipodi.sourceforge.net/DTD/sodipodi-0.dtd"
   xmlns="http://www.w3.org/2000/svg"
   xmlns:svg="http://www.w3.org/2000/svg"
   xmlns:rdf="http://www.w3.org/1999/02/22-rdf-syntax-ns#"
   xmlns:cc="http://creativecommons.org/ns#"
   xmlns:dc="http://purl.org/dc/elements/1.1/">
  <metadata
     id="metadata12">
    <rdf:RDF>
      <cc:Work
         rdf:about="">
        <dc:format>image/svg+xml</dc:format>
        <dc:type
           rdf:resource="http://purl.org/dc/dcmitype/StillImage" />
      </cc:Work>
    </rdf:RDF>
  </metadata>
  <defs
     id="defs10" />
  <sodipodi:namedview
     pagecolor="#ffffff"
     bordercolor="#666666"
     borderopacity="1"
     objecttolerance="10"
     gridtolerance="10"
     guidetolerance="10"
     inkscape:pageopacity="0"
     inkscape:pageshadow="2"
     inkscape:window-width="640"
     inkscape:window-height="480"
     id="namedview8"
     showgrid="false"
     inkscape:zoom="0.30592448"
     inkscape:cx="813.92637"
     inkscape:cy="1077.0632"
     inkscape:current-layer="svg6"
     inkscape:pagecheckerboard="0"
     inkscape:document-units="px"
     units="px"
     scale-x="1" />
  <g
     id="g12161"
     transform="translate(-526.49063)">
    <g
       aria-label="♄"
       id="text3786-2"
       style="font-size:541.514px;line-height:1;font-family:'CMU Sans Serif';-inkscape-font-specification:'CMU Sans Serif';letter-spacing:0px;word-spacing:0px;stroke-width:0.264583"
       transform="matrix(3.7795276,0,0,3.7795276,174.88604,-1.0700696)">
      <path
         d="m 216.72905,251.60412 c 20.97662,-37.01756 47.41773,-55.52634 79.32334,-55.52634 32.43443,0 58.17045,12.6036 77.20805,37.81079 19.0376,25.20719 28.5564,54.11614 28.5564,86.72685 0,24.5021 -8.8137,50.85507 -26.44111,79.05892 -17.62741,28.02758 -26.44112,52.70595 -26.44112,74.03512 0,47.594 16.04094,74.03511 48.12283,79.32334 8.28488,0 17.80368,-2.64411 28.5564,-7.93234 l 5.28822,7.93234 c -13.5731,8.8137 -27.49875,13.22055 -41.77695,13.22055 -26.08857,0 -48.12283,-9.60694 -66.10279,-28.82081 -17.97995,-19.21387 -26.96993,-40.4549 -26.96993,-63.72308 0,-18.68505 8.8137,-43.27529 26.44111,-73.7707 17.62741,-30.67169 26.44111,-57.11281 26.44111,-79.32334 0,-25.38347 -5.55263,-48.03469 -16.6579,-67.95366 -10.92899,-20.09525 -26.8818,-30.14287 -47.85841,-30.14287 -27.32248,0 -49.88556,19.7427 -67.68925,59.22809 -3.20537,8.01344 -23.87119,22.44465 -19.56965,10.74358 6.28692,-13.0889 11.6562,-24.64283 19.56965,-40.88644 z"
         style="font-family:Quivira;-inkscape-font-specification:Quivira"
         id="path4633"
         sodipodi:nodetypes="cssscscccssscscsccc" />
    </g>
    <g
       aria-label="ρ"
       id="text5954"
       style="font-size:1838.22px;line-height:1;font-family:Quivira;-inkscape-font-specification:Quivira;letter-spacing:0px;word-spacing:0px;fill:#ff0000">
      <path
         d="m 1807.9586,126.73767 c -41.2881,0 -81.3795,14.36109 -120.2741,43.08328 -38.2963,28.72219 -67.916,70.30952 -88.8593,124.762 -20.3449,53.8541 -30.5173,113.09361 -30.5173,177.71854 0,64.02654 10.1724,123.26605 30.5173,177.71853 20.9433,54.45248 50.563,96.03981 88.8593,124.762 38.8946,28.72219 78.986,43.08328 120.2741,43.08328 41.8865,0 81.9779,-14.36109 120.2742,-43.08328 38.8946,-28.72219 68.5144,-70.30952 88.8593,-124.762 20.9433,-54.45248 31.4149,-113.69199 31.4149,-177.71853 0,-64.62493 -10.4716,-123.86444 -31.4149,-177.71854 -20.3449,-54.45248 -49.9647,-96.03981 -88.8593,-124.762 -38.2963,-28.72219 -78.3877,-43.08328 -120.2742,-43.08328 z m -374.286,345.56382 c 0,-75.99412 16.1562,-146.30364 48.4687,-210.92857 32.3125,-65.2233 78.3877,-115.18794 138.2256,-149.89391 60.4363,-34.705977 122.9668,-52.058965 187.5917,-52.058965 65.2233,0 127.7539,17.352988 187.5918,52.058965 60.4363,34.70597 106.8106,84.67061 139.1231,149.89391 32.3125,64.62493 48.4687,134.93445 48.4687,210.92857 0,75.99412 -16.1562,146.60283 -48.4687,211.82613 -32.3125,64.62492 -78.6868,114.29037 -139.1231,148.99634 -59.8379,34.70597 -122.3685,52.05896 -187.5918,52.05896 -64.6249,0 -126.8563,-17.35299 -186.6942,-52.05896 -19.1481,-10.77082 -36.8003,-23.03759 -52.9565,-36.8003 v 148.66773 h -134.6353 z"
         id="path11839"
         sodipodi:nodetypes="sccsccsccsccssccsccsccsccccs" />
    </g>
  </g>
</svg>
