<?xml version="1.0" encoding="UTF-8" standalone="no"?>
<svg
   width="541.86664mm"
   height="541.86664mm"
   version="1.1"
   viewBox="0 0 2047.9999 2047.9999"
   id="svg6"
   sodipodi:docname="2646.svg"
   inkscape:version="1.1.2 (b8e25be833, 2022-02-05)"
   xmlns:inkscape="http://www.inkscape.org/namespaces/inkscape"
   xmlns:sodipodi="http://sodipodi.sourceforge.net/DTD/sodipodi-0.dtd"
   xmlns="http://www.w3.org/2000/svg"
   xmlns:svg="http://www.w3.org/2000/svg"
   xmlns:rdf="http://www.w3.org/1999/02/22-rdf-syntax-ns#"
   xmlns:cc="http://creativecommons.org/ns#"
   xmlns:dc="http://purl.org/dc/elements/1.1/">
  <g
     aria-label="♆"
     id="text3126"
     style="font-size:2046.67px;line-height:1;font-family:Quivira;-inkscape-font-specification:Quivira;letter-spacing:0px;word-spacing:0px">
    <path
       d="m 324.45452,392.80902 q -88.9422,72.9526 -219.85713,145.90519 V 498.74019 Q 344.44153,258.89604 424.38958,19.051894 504.33763,258.89604 744.18178,498.74019 v 39.97402 Q 613.26685,465.76162 524.32464,392.80902 v 95.93766 q 0,219.85713 99.93506,334.78245 99.93506,114.92532 299.80518,114.92532 V 292.87396 q -88.9422,72.95259 -219.85713,145.90519 V 398.80512 Q 944.0519,158.96098 1023.9999,-80.883167 1103.948,158.96098 1343.7921,398.80512 v 39.97403 Q 1212.8772,365.82655 1123.935,292.87396 v 645.58049 q 199.8701,0 299.8052,-114.92532 99.935,-114.92532 99.935,-334.78245 v -95.93766 q -88.9422,72.9526 -219.8571,145.90519 v -39.97402 q 239.8442,-239.84415 319.7922,-479.688296 79.9481,239.844146 319.7922,479.688296 v 39.97402 Q 1812.4876,465.76162 1723.5454,392.80902 v 145.90519 q 0,219.85713 -149.9026,359.76622 -149.9026,139.90907 -449.7078,139.90907 v 199.8701 h 299.8052 v 99.9351 H 1123.935 v 99.9351 q 0,49.9675 39.974,104.9318 39.9741,54.9643 109.9286,54.9643 h 49.9675 v 39.974 H 724.19476 v -39.974 h 49.96753 q 69.95455,0 109.92857,-54.9643 39.97402,-54.9643 39.97402,-104.9318 v -99.9351 H 624.2597 v -99.9351 h 299.80518 v -199.8701 q -299.80518,0 -449.70777,-139.90907 Q 324.45452,758.57134 324.45452,538.71421 Z"
       id="path823" />
  </g>
  <metadata
     id="metadata12">
    <rdf:RDF>
      <cc:Work
         rdf:about="">
        <dc:format>image/svg+xml</dc:format>
        <dc:type
           rdf:resource="http://purl.org/dc/dcmitype/StillImage" />
      </cc:Work>
    </rdf:RDF>
  </metadata>
  <defs
     id="defs10" />
  <sodipodi:namedview
     pagecolor="#ffffff"
     bordercolor="#666666"
     borderopacity="1"
     objecttolerance="10"
     gridtolerance="10"
     guidetolerance="10"
     inkscape:pageopacity="0"
     inkscape:pageshadow="2"
     inkscape:window-width="640"
     inkscape:window-height="480"
     id="namedview8"
     showgrid="false"
     inkscape:zoom="0.30592448"
     inkscape:cx="706.05661"
     inkscape:cy="1740.6257"
     inkscape:current-layer="svg6"
     inkscape:pagecheckerboard="0"
     inkscape:document-units="px"
     units="px"
     scale-x="1"
     showguides="false" />
</svg>
