<?xml version="1.0" encoding="UTF-8" standalone="no"?>
<svg
   width="541.86664mm"
   height="541.86664mm"
   version="1.1"
   viewBox="0 0 2047.9999 2047.9999"
   id="svg6"
   sodipodi:docname="2647.svg"
   inkscape:version="1.1.2 (b8e25be833, 2022-02-05)"
   xmlns:inkscape="http://www.inkscape.org/namespaces/inkscape"
   xmlns:sodipodi="http://sodipodi.sourceforge.net/DTD/sodipodi-0.dtd"
   xmlns="http://www.w3.org/2000/svg"
   xmlns:svg="http://www.w3.org/2000/svg"
   xmlns:rdf="http://www.w3.org/1999/02/22-rdf-syntax-ns#"
   xmlns:cc="http://creativecommons.org/ns#"
   xmlns:dc="http://purl.org/dc/elements/1.1/">
  <metadata
     id="metadata12">
    <rdf:RDF>
      <cc:Work
         rdf:about="">
        <dc:format>image/svg+xml</dc:format>
        <dc:type
           rdf:resource="http://purl.org/dc/dcmitype/StillImage" />
      </cc:Work>
    </rdf:RDF>
  </metadata>
  <defs
     id="defs10" />
  <sodipodi:namedview
     pagecolor="#ffffff"
     bordercolor="#666666"
     borderopacity="1"
     objecttolerance="10"
     gridtolerance="10"
     guidetolerance="10"
     inkscape:pageopacity="0"
     inkscape:pageshadow="2"
     inkscape:window-width="640"
     inkscape:window-height="480"
     id="namedview8"
     showgrid="false"
     inkscape:zoom="0.15296224"
     inkscape:cx="581.84294"
     inkscape:cy="1278.0932"
     inkscape:current-layer="svg6"
     inkscape:pagecheckerboard="0"
     inkscape:document-units="px"
     units="px"
     scale-x="1"
     showguides="false" />
  <g
     aria-label="♇"
     id="text2893"
     style="font-size:2046.67px;line-height:1;font-family:Quivira;-inkscape-font-specification:Quivira;letter-spacing:0px;word-spacing:0px"
     transform="translate(-980.9554,-25.8094)">
    <path
       d="m 1780.1015,394.63405 v 489.6818 q 119.922,29.98052 244.8408,29.98052 124.9189,0 239.8442,-61.95974 114.9253,-62.95909 114.9253,-212.86168 0,-149.90259 -114.9253,-211.86233 -114.9253,-62.95908 -239.8442,-62.95908 -124.9188,0 -244.8408,29.98051 z m 0,1169.24025 h 599.6103 q 99.9351,0 209.8636,-249.8377 h 39.9741 l -99.9351,349.7727 H 1380.3612 v -39.974 h 49.9675 q 69.9546,0 109.9286,-54.9643 39.974,-54.9643 39.974,-104.9318 V 464.5886 q 0,-49.96753 -39.974,-104.93182 -39.974,-54.96428 -109.9286,-54.96428 h -49.9675 v -39.97402 h 669.5649 q 249.8377,0 389.7468,92.9396 139.909,91.94026 139.909,281.81687 0,189.87662 -124.9188,282.81623 -124.9188,91.94022 -404.737,91.94022 h -269.8246 z"
       id="path3591" />
  </g>
</svg>
