<?xml version="1.0" encoding="UTF-8" standalone="no"?>
<svg
   width="541.86664mm"
   height="541.86664mm"
   version="1.1"
   viewBox="0 0 2047.9999 2047.9999"
   id="svg6"
   sodipodi:docname="26B3.svg"
   inkscape:version="1.1.2 (b8e25be833, 2022-02-05)"
   xmlns:inkscape="http://www.inkscape.org/namespaces/inkscape"
   xmlns:sodipodi="http://sodipodi.sourceforge.net/DTD/sodipodi-0.dtd"
   xmlns="http://www.w3.org/2000/svg"
   xmlns:svg="http://www.w3.org/2000/svg"
   xmlns:rdf="http://www.w3.org/1999/02/22-rdf-syntax-ns#"
   xmlns:cc="http://creativecommons.org/ns#"
   xmlns:dc="http://purl.org/dc/elements/1.1/">
  <metadata
     id="metadata12">
    <rdf:RDF>
      <cc:Work
         rdf:about="">
        <dc:format>image/svg+xml</dc:format>
        <dc:type
           rdf:resource="http://purl.org/dc/dcmitype/StillImage" />
      </cc:Work>
    </rdf:RDF>
  </metadata>
  <defs
     id="defs10" />
  <sodipodi:namedview
     pagecolor="#ffffff"
     bordercolor="#666666"
     borderopacity="1"
     objecttolerance="10"
     gridtolerance="10"
     guidetolerance="10"
     inkscape:pageopacity="0"
     inkscape:pageshadow="2"
     inkscape:window-width="640"
     inkscape:window-height="480"
     id="namedview8"
     showgrid="false"
     inkscape:zoom="0.07648112"
     inkscape:cx="-1438.2635"
     inkscape:cy="3850.6235"
     inkscape:current-layer="svg6"
     inkscape:pagecheckerboard="0"
     inkscape:document-units="px"
     units="px"
     scale-x="1"
     showguides="false" />
  <g
     aria-label="⚳"
     id="text10858"
     style="font-size:2046.67px;line-height:1;font-family:Quivira;-inkscape-font-specification:Quivira;letter-spacing:0px;word-spacing:0px"
     transform="translate(-1135.5585,-3.6553221)">
    <path
       d="m 2032.6409,377.47663 q -51.9662,44.97078 -79.948,128.91623 -23.9844,73.95195 -102.9331,73.95195 -11.9922,0 -24.9838,-1.9987 -64.9578,-7.99481 -64.9578,-56.96299 0,-25.98312 18.9877,-64.95779 53.9649,-107.92986 153.9,-165.8922 100.9344,-57.96234 208.8642,-57.96234 108.9293,0 208.8643,57.96234 100.9344,57.96234 154.8994,166.89155 53.9649,107.92987 53.9649,234.84739 0,116.92403 -53.9649,225.85324 -53.965,107.92989 -153.9,165.89219 -53.965,30.9799 -108.9292,44.9708 v 162.8941 h 216.859 v 99.9351 h -216.859 v 79.948 q 0,49.9676 24.9837,89.9416 24.9838,39.974 94.9383,39.974 h 49.9676 v 39.9741 h -539.6494 v -39.9741 h 49.9676 q 69.9545,0 94.9383,-39.974 24.9837,-39.974 24.9837,-89.9416 v -79.948 H 1824.776 v -99.9351 h 217.8584 v -249.8376 q 155.8987,0 207.865,-44.97079 52.9655,-44.97078 80.9474,-128.91623 27.9818,-84.9448 27.9818,-175.88571 0,-100.93441 -27.9818,-184.87986 -27.9819,-84.9448 -80.9474,-129.91558 -51.9663,-44.97077 -108.9293,-44.97077 -55.9636,0 -108.9292,44.97077 z"
       id="path11616" />
  </g>
</svg>
