<?xml version="1.0" encoding="UTF-8" standalone="no"?>
<svg
   width="541.86664mm"
   height="541.86664mm"
   version="1.1"
   viewBox="0 0 2047.9999 2047.9999"
   id="svg6"
   sodipodi:docname="26B5.svg"
   inkscape:version="1.1.2 (b8e25be833, 2022-02-05)"
   xmlns:inkscape="http://www.inkscape.org/namespaces/inkscape"
   xmlns:sodipodi="http://sodipodi.sourceforge.net/DTD/sodipodi-0.dtd"
   xmlns="http://www.w3.org/2000/svg"
   xmlns:svg="http://www.w3.org/2000/svg"
   xmlns:rdf="http://www.w3.org/1999/02/22-rdf-syntax-ns#"
   xmlns:cc="http://creativecommons.org/ns#"
   xmlns:dc="http://purl.org/dc/elements/1.1/">
  <metadata
     id="metadata12">
    <rdf:RDF>
      <cc:Work
         rdf:about="">
        <dc:format>image/svg+xml</dc:format>
        <dc:type
           rdf:resource="http://purl.org/dc/dcmitype/StillImage" />
      </cc:Work>
    </rdf:RDF>
  </metadata>
  <defs
     id="defs10" />
  <sodipodi:namedview
     pagecolor="#ffffff"
     bordercolor="#666666"
     borderopacity="1"
     objecttolerance="10"
     gridtolerance="10"
     guidetolerance="10"
     inkscape:pageopacity="0"
     inkscape:pageshadow="2"
     inkscape:window-width="640"
     inkscape:window-height="480"
     id="namedview8"
     showgrid="false"
     inkscape:zoom="0.30592448"
     inkscape:cx="1905.6991"
     inkscape:cy="1394.1349"
     inkscape:current-layer="svg6"
     inkscape:pagecheckerboard="0"
     inkscape:document-units="px"
     units="px"
     scale-x="1"
     showguides="false" />
  <g
     aria-label="⚵"
     id="text15036"
     style="font-size:2046.67px;line-height:1;font-family:Quivira;-inkscape-font-specification:Quivira;letter-spacing:0px;word-spacing:0px"
     transform="translate(-562.78215,-6.19682)">
    <path
       d="m 1685.7178,574.89151 218.8577,-218.85779 70.9539,70.9539 -267.8259,267.82596 h 378.7539 v 99.93506 h -378.7539 l 267.8259,267.82596 -70.9539,70.9539 -218.8577,-218.85779 v 379.75319 h 216.859 v 99.9351 h -216.859 v 79.9481 q 0,49.9675 24.9837,89.9415 24.9838,39.974 94.9383,39.974 h 49.9676 v 39.9741 H 1315.958 v -39.9741 h 49.9676 q 69.9545,0 94.9383,-39.974 24.9837,-39.974 24.9837,-89.9415 v -79.9481 h -217.8584 v -99.9351 h 217.8584 V 916.66941 l -216.859,216.85909 -70.9539,-70.9539 267.8259,-267.82596 h -378.7538 v -99.93506 h 378.7538 l -267.8259,-267.82596 70.9539,-70.9539 216.859,216.85908 v -327.787 h 199.8702 z"
       id="path15980" />
  </g>
</svg>
