<?xml version="1.0" encoding="UTF-8" standalone="no"?>
<svg
   width="541.86664mm"
   height="541.86664mm"
   version="1.1"
   viewBox="0 0 2047.9999 2047.9999"
   id="svg6"
   sodipodi:docname="26E2.svg"
   inkscape:version="1.1.2 (b8e25be833, 2022-02-05)"
   xmlns:inkscape="http://www.inkscape.org/namespaces/inkscape"
   xmlns:sodipodi="http://sodipodi.sourceforge.net/DTD/sodipodi-0.dtd"
   xmlns="http://www.w3.org/2000/svg"
   xmlns:svg="http://www.w3.org/2000/svg"
   xmlns:rdf="http://www.w3.org/1999/02/22-rdf-syntax-ns#"
   xmlns:cc="http://creativecommons.org/ns#"
   xmlns:dc="http://purl.org/dc/elements/1.1/">
  <metadata
     id="metadata12">
    <rdf:RDF>
      <cc:Work
         rdf:about="">
        <dc:format>image/svg+xml</dc:format>
        <dc:type
           rdf:resource="http://purl.org/dc/dcmitype/StillImage" />
      </cc:Work>
    </rdf:RDF>
  </metadata>
  <defs
     id="defs10" />
  <sodipodi:namedview
     pagecolor="#ffffff"
     bordercolor="#666666"
     borderopacity="1"
     objecttolerance="10"
     gridtolerance="10"
     guidetolerance="10"
     inkscape:pageopacity="0"
     inkscape:pageshadow="2"
     inkscape:window-width="640"
     inkscape:window-height="480"
     id="namedview8"
     showgrid="false"
     inkscape:zoom="0.15296224"
     inkscape:cx="578.57416"
     inkscape:cy="1278.0932"
     inkscape:current-layer="svg6"
     inkscape:pagecheckerboard="0"
     inkscape:document-units="px"
     units="px"
     scale-x="1"
     showguides="false" />
  <g
     aria-label="⛢"
     id="text5254"
     style="font-size:2046.67px;line-height:1;font-family:Quivira;-inkscape-font-specification:Quivira;letter-spacing:0px;word-spacing:0px">
    <path
       d="m 1023.5003,838.51937 q -55.96367,0 -108.92925,44.97078 -51.96624,44.97077 -79.94805,129.91555 -27.98182,83.9455 -27.98182,174.8864 0,90.9409 27.98182,175.8857 27.98181,83.9454 79.94805,128.9162 52.96558,44.9708 108.92925,44.9708 56.9629,0 108.9292,-44.9708 52.9656,-44.9708 80.9474,-128.9162 27.9818,-84.9448 27.9818,-175.8857 0,-90.9409 -27.9818,-174.8864 -27.9818,-84.94478 -80.9474,-129.91555 -51.9663,-44.97078 -108.9292,-44.97078 z m 50.9668,-96.93701 q 81.9468,10.99286 158.8968,54.96428 99.935,57.96234 153.9,166.89155 53.9649,107.92991 53.9649,224.85391 0,116.924 -53.9649,225.8532 -53.965,107.9299 -154.8994,165.8922 -99.935,57.9624 -208.8642,57.9624 -107.9299,0 -208.86432,-57.9624 -99.93506,-57.9623 -153.89999,-165.8922 -53.96493,-108.9292 -53.96493,-225.8532 0,-116.924 53.96493,-224.85391 53.96493,-108.92921 154.89935,-166.89155 76.94999,-44.97078 158.89674,-54.96428 V 328.85056 Q 849.61326,453.76938 624.75937,578.68821 V 528.72068 Q 924.56455,228.9155 1024.4996,-70.889685 1124.4347,228.9155 1424.2399,528.72068 v 49.96753 Q 1199.386,453.76938 1074.4671,328.85056 Z m -49.9675,336.78114 q 28.9812,0 54.9643,13.9909 26.9825,13.9909 40.9734,40.9734 13.9909,25.9831 13.9909,54.9643 0,28.9811 -13.9909,55.9636 -13.9909,25.9831 -40.9734,39.974 -25.9831,13.9909 -54.9643,13.9909 -28.98116,0 -55.96362,-13.9909 -25.98312,-13.9909 -39.97403,-39.974 -13.9909,-26.9825 -13.9909,-55.9636 0,-28.9812 13.9909,-54.9643 13.99091,-26.9825 39.97403,-40.9734 26.98246,-13.9909 55.96362,-13.9909 z"
       id="path823" />
  </g>
</svg>
