<?xml version="1.0" encoding="UTF-8" standalone="no"?>
<svg
   width="541.86664mm"
   height="541.86664mm"
   version="1.1"
   viewBox="0 0 2047.9999 2047.9999"
   id="svg6"
   sodipodi:docname="30.svg"
   inkscape:version="1.1.2 (b8e25be833, 2022-02-05)"
   xmlns:inkscape="http://www.inkscape.org/namespaces/inkscape"
   xmlns:sodipodi="http://sodipodi.sourceforge.net/DTD/sodipodi-0.dtd"
   xmlns="http://www.w3.org/2000/svg"
   xmlns:svg="http://www.w3.org/2000/svg"
   xmlns:rdf="http://www.w3.org/1999/02/22-rdf-syntax-ns#"
   xmlns:cc="http://creativecommons.org/ns#"
   xmlns:dc="http://purl.org/dc/elements/1.1/">
  <metadata
     id="metadata12">
    <rdf:RDF>
      <cc:Work
         rdf:about="">
        <dc:format>image/svg+xml</dc:format>
        <dc:type
           rdf:resource="http://purl.org/dc/dcmitype/StillImage" />
      </cc:Work>
    </rdf:RDF>
  </metadata>
  <defs
     id="defs10" />
  <sodipodi:namedview
     pagecolor="#ffffff"
     bordercolor="#666666"
     borderopacity="1"
     objecttolerance="10"
     gridtolerance="10"
     guidetolerance="10"
     inkscape:pageopacity="0"
     inkscape:pageshadow="2"
     inkscape:window-width="640"
     inkscape:window-height="480"
     id="namedview8"
     showgrid="false"
     inkscape:zoom="0.076481119"
     inkscape:cx="1948.1933"
     inkscape:cy="1536.3269"
     inkscape:current-layer="svg6"
     inkscape:pagecheckerboard="0"
     inkscape:document-units="px"
     units="px"
     scale-x="1" />
  <g
     aria-label="0"
     id="text2553"
     style="font-size:2046.67px;line-height:1;font-family:Quivira;-inkscape-font-specification:Quivira;letter-spacing:0px;word-spacing:0px"
     transform="translate(1024.0817)">
    <path
       d="m -0.58146268,218.92199 q 108.92921268,0 208.86427268,89.94156 100.93442,89.94155 154.89935,258.8318 53.96493,168.89026 53.96493,360.76557 0,191.87528 -53.96493,360.76558 -53.96493,168.8902 -154.89935,258.8318 -99.93506,89.9416 -208.86427268,89.9416 -107.92986732,0 -208.86427732,-89.9416 -99.93506,-89.9416 -153.89999,-258.8318 -53.96494,-168.8903 -53.96494,-360.76558 0,-191.87531 53.96494,-360.76557 53.96493,-168.89025 153.89999,-258.8318 100.93441,-89.94156 208.86427732,-89.94156 z m 0,74.9513 q -68.95519232,0 -133.91297732,79.94805 -63.95844,79.94804 -98.93571,230.84999 -33.97792,150.90194 -33.97792,323.78959 0,171.88828 33.97792,323.78958 34.97727,150.902 98.93571,230.85 64.957785,79.9481 133.91297732,79.9481 69.95454268,0 133.91298268,-79.9481 64.95779,-79.948 98.93571,-230.85 34.97727,-151.9013 34.97727,-323.78958 0,-172.88765 -34.97727,-323.78959 Q 198.28931,453.76938 133.33152,373.82134 69.37308,293.87329 -0.58146268,293.87329 Z"
       id="path1962" />
  </g>
</svg>
