<?xml version="1.0" encoding="UTF-8" standalone="no"?>
<svg
   width="541.86664mm"
   height="541.86664mm"
   version="1.1"
   viewBox="0 0 2047.9999 2047.9999"
   id="svg6"
   sodipodi:docname="32.svg"
   inkscape:version="1.1.2 (b8e25be833, 2022-02-05)"
   xmlns:inkscape="http://www.inkscape.org/namespaces/inkscape"
   xmlns:sodipodi="http://sodipodi.sourceforge.net/DTD/sodipodi-0.dtd"
   xmlns="http://www.w3.org/2000/svg"
   xmlns:svg="http://www.w3.org/2000/svg"
   xmlns:rdf="http://www.w3.org/1999/02/22-rdf-syntax-ns#"
   xmlns:cc="http://creativecommons.org/ns#"
   xmlns:dc="http://purl.org/dc/elements/1.1/">
  <metadata
     id="metadata12">
    <rdf:RDF>
      <cc:Work
         rdf:about="">
        <dc:format>image/svg+xml</dc:format>
        <dc:type
           rdf:resource="http://purl.org/dc/dcmitype/StillImage" />
      </cc:Work>
    </rdf:RDF>
  </metadata>
  <defs
     id="defs10" />
  <sodipodi:namedview
     pagecolor="#ffffff"
     bordercolor="#666666"
     borderopacity="1"
     objecttolerance="10"
     gridtolerance="10"
     guidetolerance="10"
     inkscape:pageopacity="0"
     inkscape:pageshadow="2"
     inkscape:window-width="640"
     inkscape:window-height="480"
     id="namedview8"
     showgrid="false"
     inkscape:zoom="0.076481119"
     inkscape:cx="1948.1933"
     inkscape:cy="1536.3269"
     inkscape:current-layer="svg6"
     inkscape:pagecheckerboard="0"
     inkscape:document-units="px"
     units="px"
     scale-x="1" />
  <g
     aria-label="2"
     id="text2553"
     style="font-size:2046.67px;line-height:1;font-family:Quivira;-inkscape-font-specification:Quivira;letter-spacing:0px;word-spacing:0px"
     transform="translate(1024.0817)">
    <path
       d="m 447.12761,1367.1758 -94.93831,260.8305 h -799.48048 v -56.9629 Q -94.52042,1249.2525 49.386068,1045.3849 193.29256,841.51742 193.29256,672.62717 q 0,-138.90974 -78.9487,-220.85649 -78.948701,-82.9461 -188.877268,-82.9461 -99.935062,0 -179.883112,67.95584 -78.94869,67.95584 -116.92402,180.88246 h -36.97597 q 24.98376,-184.87986 127.91688,-291.81037 103.93246,-106.93052 258.831805,-106.93052 164.892845,0 274.821415,113.92597 110.92792,113.92597 110.92792,267.82596 0,102.93312 -47.96883,205.86623 -73.95195,161.8948 -239.844146,342.77725 -248.838304,271.8234 -310.798034,328.7864 h 353.77011 q 107.92987,0 150.90194,-7.9948 43.97143,-8.9942 78.9487,-32.9786 34.97727,-24.9838 60.96039,-69.9546 z"
       id="path4616" />
  </g>
</svg>
