<?xml version="1.0" encoding="UTF-8" standalone="no"?>
<svg
   width="541.86664mm"
   height="541.86664mm"
   version="1.1"
   viewBox="0 0 2047.9999 2047.9999"
   id="svg6"
   sodipodi:docname="36.svg"
   inkscape:version="1.1.2 (b8e25be833, 2022-02-05)"
   xmlns:inkscape="http://www.inkscape.org/namespaces/inkscape"
   xmlns:sodipodi="http://sodipodi.sourceforge.net/DTD/sodipodi-0.dtd"
   xmlns="http://www.w3.org/2000/svg"
   xmlns:svg="http://www.w3.org/2000/svg"
   xmlns:rdf="http://www.w3.org/1999/02/22-rdf-syntax-ns#"
   xmlns:cc="http://creativecommons.org/ns#"
   xmlns:dc="http://purl.org/dc/elements/1.1/">
  <metadata
     id="metadata12">
    <rdf:RDF>
      <cc:Work
         rdf:about="">
        <dc:format>image/svg+xml</dc:format>
        <dc:type
           rdf:resource="http://purl.org/dc/dcmitype/StillImage" />
      </cc:Work>
    </rdf:RDF>
  </metadata>
  <defs
     id="defs10" />
  <sodipodi:namedview
     pagecolor="#ffffff"
     bordercolor="#666666"
     borderopacity="1"
     objecttolerance="10"
     gridtolerance="10"
     guidetolerance="10"
     inkscape:pageopacity="0"
     inkscape:pageshadow="2"
     inkscape:window-width="640"
     inkscape:window-height="480"
     id="namedview8"
     showgrid="false"
     inkscape:zoom="0.076481119"
     inkscape:cx="1948.1933"
     inkscape:cy="1536.3269"
     inkscape:current-layer="svg6"
     inkscape:pagecheckerboard="0"
     inkscape:document-units="px"
     units="px"
     scale-x="1" />
  <g
     aria-label="6"
     id="text2553"
     style="font-size:2046.67px;line-height:1;font-family:Quivira;-inkscape-font-specification:Quivira;letter-spacing:0px;word-spacing:0px"
     transform="translate(1024.0817)">
    <path
       d="m -262.41132,1095.3525 q -2.99805,34.9772 -4.99675,82.9461 0,106.9305 33.97792,197.8714 34.97727,90.9409 98.93571,138.9097 64.957785,47.9689 133.91297732,47.9689 69.95454268,0 133.91298268,-47.9689 64.95779,-47.9688 98.93571,-138.9097 34.97727,-90.9409 34.97727,-197.8714 0,-107.9299 -34.97727,-197.87145 -33.97792,-90.9409 -98.93571,-138.90973 -63.95844,-47.96883 -133.91298268,-47.96883 -68.95519232,0 -133.91297732,47.96883 -63.95844,47.96883 -97.93636,137.91038 -21.98572,56.963 -29.98052,115.9247 z M -403.31976,979.4278 q 14.99026,-102.93311 59.96104,-222.85518 45.97013,-119.92207 169.8896,-263.82856 Q -49.549642,348.83757 105.3497,288.87653 261.2484,228.9155 369.17826,228.9155 v 44.97077 q -68.95519,0 -188.87726,64.95779 -118.922725,64.95779 -227.851941,200.86948 -91.940259,113.92597 -141.907789,225.85323 90.940908,-46.96948 188.87726732,-46.96948 108.92921268,0 208.86427268,57.96234 100.93442,57.96234 154.89935,166.89155 53.96493,107.92982 53.96493,234.84742 0,126.9175 -53.96493,235.8467 -53.96493,107.9299 -154.89935,165.8922 -99.93506,57.9624 -208.86427268,57.9624 -107.92986732,0 -208.86427732,-57.9624 -99.93506,-57.9623 -153.89999,-165.8922 -53.96494,-108.9292 -53.96494,-235.8467 0,-96.937 13.99091,-198.8708 z"
       id="path10756" />
  </g>
</svg>
