<?xml version="1.0" encoding="UTF-8" standalone="no"?>
<svg
   width="541.86664mm"
   height="541.86664mm"
   version="1.1"
   viewBox="0 0 2047.9999 2047.9999"
   id="svg6"
   sodipodi:docname="38.svg"
   inkscape:version="1.1.2 (b8e25be833, 2022-02-05)"
   xmlns:inkscape="http://www.inkscape.org/namespaces/inkscape"
   xmlns:sodipodi="http://sodipodi.sourceforge.net/DTD/sodipodi-0.dtd"
   xmlns="http://www.w3.org/2000/svg"
   xmlns:svg="http://www.w3.org/2000/svg"
   xmlns:rdf="http://www.w3.org/1999/02/22-rdf-syntax-ns#"
   xmlns:cc="http://creativecommons.org/ns#"
   xmlns:dc="http://purl.org/dc/elements/1.1/">
  <metadata
     id="metadata12">
    <rdf:RDF>
      <cc:Work
         rdf:about="">
        <dc:format>image/svg+xml</dc:format>
        <dc:type
           rdf:resource="http://purl.org/dc/dcmitype/StillImage" />
      </cc:Work>
    </rdf:RDF>
  </metadata>
  <defs
     id="defs10" />
  <sodipodi:namedview
     pagecolor="#ffffff"
     bordercolor="#666666"
     borderopacity="1"
     objecttolerance="10"
     gridtolerance="10"
     guidetolerance="10"
     inkscape:pageopacity="0"
     inkscape:pageshadow="2"
     inkscape:window-width="640"
     inkscape:window-height="480"
     id="namedview8"
     showgrid="false"
     inkscape:zoom="0.076481119"
     inkscape:cx="1948.1933"
     inkscape:cy="1536.3269"
     inkscape:current-layer="svg6"
     inkscape:pagecheckerboard="0"
     inkscape:document-units="px"
     units="px"
     scale-x="1" />
  <g
     aria-label="8"
     id="text2553"
     style="font-size:2046.67px;line-height:1;font-family:Quivira;-inkscape-font-specification:Quivira;letter-spacing:0px;word-spacing:0px"
     transform="translate(1024.0817)">
    <path
       d="m -134.49444,992.41936 q -63.95844,37.97534 -98.93571,110.92794 -33.97792,71.9532 -33.97792,149.9026 0,87.9428 33.97792,160.8954 34.97727,71.9533 98.93571,110.9279 64.957785,37.9754 133.91297732,37.9754 69.95454268,0 133.91298268,-37.9754 64.95779,-38.9746 98.93571,-110.9279 34.97727,-72.9526 34.97727,-160.8954 0,-77.9494 -34.97727,-149.9026 -33.97792,-72.9526 -98.93571,-110.92794 -63.95844,-38.97467 -133.91298268,-38.97467 -68.95519232,0 -133.91297732,38.97467 z m 19.98701,-661.5701 q -53.96493,35.97662 -83.94545,104.93181 -28.98117,68.95519 -28.98117,152.90065 0,73.95194 28.98117,142.90713 29.98052,68.95519 83.94545,105.93117 54.964281,35.97662 113.92596732,35.97662 59.96103668,0 113.92597268,-35.97662 54.96428,-36.97598 83.94545,-105.93117 29.98052,-68.95519 29.98052,-142.90713 0,-83.94546 -29.98052,-152.90065 -28.98117,-68.95519 -83.94545,-104.93181 -53.964936,-36.97597 -113.92597268,-36.97597 -58.96168632,0 -113.92596732,36.97597 z m 285.81427,579.62335 q 18.98766,6.99546 37.97532,15.98961 99.93507,48.96818 153.9,138.90978 53.96493,89.9415 53.96493,187.8779 0,106.9305 -53.96493,197.8714 -53.96493,89.9415 -154.89935,138.9097 -99.93506,47.9689 -208.86427268,47.9689 -107.92986732,0 -208.86427732,-47.9689 -99.93506,-48.9682 -153.89999,-138.9097 -53.96494,-90.9409 -53.96494,-197.8714 0,-97.9364 53.96494,-187.8779 53.96493,-89.9416 154.89934,-138.90978 17.98831,-8.99415 36.97597,-15.98961 -8.99415,-3.9974 -16.98896,-8.99415 -90.9409,-45.97013 -139.90908,-131.91428 -48.96818,-86.94351 -48.96818,-180.88246 0,-103.93247 48.96818,-189.87662 48.96818,-86.9435 138.90973,-132.91363 90.940908,-46.96948 188.87726732,-46.96948 98.93570968,0 188.87726268,46.96948 90.94091,45.97013 139.90909,132.91363 48.96818,85.94415 48.96818,189.87662 0,93.93895 -48.96818,180.88246 -48.96818,85.94415 -138.90974,131.91428 -8.99415,4.99675 -17.98831,8.99415 z"
       id="path13890" />
  </g>
</svg>
